<?xml version="1.0" encoding="UTF-8" standalone="no"?>
<svg width="298.45mm" height="25.4mm"
 xmlns="http://www.w3.org/2000/svg" xmlns:xlink="http://www.w3.org/1999/xlink"  version="1.2" baseProfile="tiny">
<title>Qt SVG Document</title>
<desc>Generated with Qt</desc>
<defs>
</defs>
<g fill="none" stroke="black" stroke-width="1" fill-rule="evenodd" stroke-linecap="square" stroke-linejoin="bevel" >

<g fill="none" stroke="#000000" stroke-opacity="1" stroke-width="1" stroke-linecap="square" stroke-linejoin="bevel" transform="matrix(1,0,0,1,0,0)"
font-family="Noto Sans" font-size="9" font-weight="400" font-style="normal" 
>
</g>

<g fill="none" stroke="#000000" stroke-opacity="1" stroke-width="1" stroke-linecap="square" stroke-linejoin="bevel" transform="matrix(1,0,0,1,0,0)"
font-family="Noto Sans" font-size="9" font-weight="400" font-style="normal" 
>
</g>

<g fill="none" stroke="#000000" stroke-opacity="1" stroke-width="1" stroke-linecap="square" stroke-linejoin="bevel" transform="matrix(2,0,0,2,-0.002,72)"
font-family="Noto Sans" font-size="9" font-weight="400" font-style="normal" 
>
</g>

<g fill="#ffffff" fill-opacity="1" stroke="none" transform="matrix(2,0,0,2,-0.002,72)"
font-family="Noto Sans" font-size="9" font-weight="400" font-style="normal" 
>
<rect x="0.001" y="-36" width="422.875" height="36"/>
</g>

<g fill="none" stroke="#000000" stroke-opacity="1" stroke-width="1" stroke-linecap="square" stroke-linejoin="bevel" transform="matrix(2,0,0,2,-0.002,72)"
font-family="Noto Sans" font-size="9" font-weight="400" font-style="normal" 
>
</g>

<g fill="none" stroke="#000000" stroke-opacity="1" stroke-width="1" stroke-linecap="square" stroke-linejoin="bevel" transform="matrix(2,0,0,2,-0.002,72)"
font-family="Noto Sans" font-size="9" font-weight="400" font-style="normal" 
>
</g>

<g fill="none" stroke="#000000" stroke-opacity="1" stroke-width="1" stroke-linecap="square" stroke-linejoin="bevel" transform="matrix(2,0,0,2,-0.002,72)"
font-family="Noto Sans" font-size="9" font-weight="400" font-style="normal" 
>
</g>

<g fill="none" stroke="#000000" stroke-opacity="1" stroke-width="1" stroke-linecap="square" stroke-linejoin="bevel" transform="matrix(2,0,0,2,-0.002,72)"
font-family="Noto Sans" font-size="9" font-weight="400" font-style="normal" 
>
</g>

<g fill="none" stroke="#000000" stroke-opacity="1" stroke-width="1" stroke-linecap="square" stroke-linejoin="round" transform="matrix(2,0,0,2,-0.002,72)"
font-family="Noto Sans" font-size="9" font-weight="400" font-style="normal" 
>
<ellipse cx="361.78" cy="-18" rx="60.5956" ry="17.5"/>
</g>

<g fill="none" stroke="#000000" stroke-opacity="1" stroke-width="1" stroke-linecap="square" stroke-linejoin="bevel" transform="matrix(2,0,0,2,-0.002,72)"
font-family="Noto Sans" font-size="9" font-weight="400" font-style="normal" 
>
</g>

<g fill="none" stroke="#000000" stroke-opacity="1" stroke-width="1" stroke-linecap="square" stroke-linejoin="bevel" transform="matrix(2,0,0,2,648.777,22)"
font-family="Noto Sans" font-size="9" font-weight="400" font-style="normal" 
>
</g>

<g fill="none" stroke="#000000" stroke-opacity="1" stroke-width="1" stroke-linecap="square" stroke-linejoin="bevel" transform="matrix(2,0,0,2,648.777,22)"
font-family="sans" font-size="11" font-weight="100" font-style="normal" 
>
</g>

<g fill="#000000" fill-opacity="1" stroke="#000000" stroke-opacity="1" stroke-width="1" stroke-linecap="square" stroke-linejoin="round" transform="matrix(2,0,0,2,648.777,22)"
font-family="sans" font-size="11" font-weight="100" font-style="normal" 
>
<path vector-effect="none" fill-rule="nonzero" d="M2.96875,2.98438 L3.53125,2.98438 L0.734375,12.0156 L0.171875,12.0156 L2.96875,2.98438 M5.04688,2.98438 L5.57813,2.98438 L5.57813,10.5625 L9.48438,10.5625 L9.48438,11 L5.04688,11 L5.04688,2.98438 M14.6563,6.01563 C14.3021,5.52604 13.8177,5.28125 13.2031,5.28125 C12.5885,5.28125 12.1042,5.52604 11.75,6.01563 C11.3958,6.49479 11.2188,7.15104 11.2188,7.98438 C11.2188,8.83854 11.3958,9.51042 11.75,10 C12.1042,10.4896 12.5885,10.7344 13.2031,10.7344 C13.8177,10.7344 14.3021,10.4896 14.6563,10 C15.0104,9.5 15.1875,8.82813 15.1875,7.98438 C15.1875,7.16146 15.0104,6.50521 14.6563,6.01563 M13.2031,4.84375 C13.9635,4.84375 14.5677,5.13021 15.0156,5.70313 C15.4635,6.27604 15.6875,7.03646 15.6875,7.98438 C15.6875,8.97396 15.4635,9.75521 15.0156,10.3281 C14.5677,10.901 13.9635,11.1875 13.2031,11.1875 C12.4219,11.1875 11.8073,10.901 11.3594,10.3281 C10.9219,9.75521 10.7031,8.97396 10.7031,7.98438 C10.7031,7.02604 10.9271,6.26302 11.375,5.69531 C11.8229,5.1276 12.4323,4.84375 13.2031,4.84375 M17.25,4.98438 L17.7656,4.98438 L19.7969,10.4531 L21.8438,4.98438 L22.3594,4.98438 L20.125,11 L19.4844,11 L17.25,4.98438 M28.9844,7.75 L28.9844,8.0625 L24.4219,8.0625 C24.4219,9.02083 24.6094,9.69792 24.9844,10.0938 C25.401,10.5208 26.0156,10.7344 26.8281,10.7344 C27.0469,10.7344 27.3333,10.6875 27.6875,10.5938 C28.0417,10.5 28.3958,10.3594 28.75,10.1719 L28.75,10.6875 C28.3958,10.8438 28.0339,10.9609 27.6641,11.0391 C27.2943,11.1172 27,11.1563 26.7813,11.1563 C25.8542,11.1563 25.1563,10.9063 24.6875,10.4063 C24.1771,9.875 23.9219,9.09375 23.9219,8.0625 C23.9219,6.98958 24.151,6.1875 24.6094,5.65625 C25.0885,5.11458 25.7552,4.84375 26.6094,4.84375 C27.3906,4.84375 27.9844,5.10417 28.3906,5.625 C28.7865,6.16667 28.9844,6.875 28.9844,7.75 M28.4844,7.64063 C28.4844,6.79688 28.2917,6.18229 27.9063,5.79688 C27.5938,5.45313 27.1615,5.28125 26.6094,5.28125 C26.0156,5.28125 25.5156,5.45833 25.1094,5.8125 C24.7344,6.14583 24.5104,6.75521 24.4375,7.64063 L28.4844,7.64063 M31.0625,2.64063 L31.5469,2.64063 L31.5469,11 L31.0625,11 L31.0625,2.64063 M36.1406,11.5625 C35.9219,12.0938 35.6875,12.4635 35.4375,12.6719 C35.1042,12.9427 34.7813,13.0781 34.4688,13.0781 L33.7344,13.0781 L33.7344,12.6563 L34.3594,12.6563 C34.6198,12.6563 34.849,12.5729 35.0469,12.4063 C35.2969,12.1875 35.5052,11.8698 35.6719,11.4531 L35.8438,11 L33.4531,4.98438 L33.9844,4.98438 L36.1094,10.3438 L38.25,4.98438 L38.7813,4.98438 L36.1406,11.5625 M44.9688,13.1719 L44.9688,13.5938 L39.25,13.5938 L39.25,13.1719 L44.9688,13.1719 M46.625,3.28125 L46.625,4.98438 L48.6563,4.98438 L48.6563,5.40625 L46.625,5.40625 L46.625,9.01563 C46.625,9.47396 46.6823,9.79688 46.7969,9.98438 C47.0469,10.3802 47.4063,10.5781 47.875,10.5781 L48.6563,10.5781 L48.6563,11 L47.8906,11 C47.401,11 46.9844,10.8568 46.6406,10.5703 C46.2969,10.2839 46.125,9.76563 46.125,9.01563 L46.125,5.40625 L45.4063,5.40625 L45.4063,4.98438 L46.125,4.98438 L46.125,3.28125 L46.625,3.28125 M50.3594,8.60938 L50.3594,4.98438 L50.8438,4.98438 L50.8438,8.57813 C50.8438,9.35938 50.9688,9.90885 51.2188,10.2266 C51.4688,10.5443 51.8385,10.7031 52.3281,10.7031 C52.901,10.7031 53.3906,10.5313 53.7969,10.1875 C54.2031,9.84375 54.4063,9.24479 54.4063,8.39063 L54.4063,4.98438 L54.8906,4.98438 L54.8906,11 L54.4063,11 L54.4063,9.875 C54.2292,10.2396 53.9948,10.5156 53.7031,10.7031 C53.2865,10.9948 52.8229,11.1406 52.3125,11.1406 C51.7188,11.1406 51.2448,10.9375 50.8906,10.5313 C50.5365,10.1354 50.3594,9.49479 50.3594,8.60938 M60.6563,5.40625 C60.5729,5.36458 60.4635,5.33333 60.3281,5.3125 C60.2031,5.29167 60.0521,5.28125 59.875,5.28125 C59.2604,5.28125 58.7552,5.50521 58.3594,5.95313 C58.0365,6.31771 57.875,6.94271 57.875,7.82813 L57.875,11 L57.3906,11 L57.3906,4.98438 L57.875,4.98438 L57.875,6.10938 C58.0417,5.78646 58.2708,5.51563 58.5625,5.29688 C58.9583,4.99479 59.4271,4.84375 59.9688,4.84375 C60.1146,4.84375 60.2396,4.84896 60.3438,4.85938 C60.4479,4.85938 60.5521,4.86979 60.6563,4.89063 L60.6563,5.40625 M62.4219,3.28125 L62.4219,4.98438 L64.4531,4.98438 L64.4531,5.40625 L62.4219,5.40625 L62.4219,9.01563 C62.4219,9.47396 62.4792,9.79688 62.5938,9.98438 C62.8438,10.3802 63.2031,10.5781 63.6719,10.5781 L64.4531,10.5781 L64.4531,11 L63.6875,11 C63.1979,11 62.7813,10.8568 62.4375,10.5703 C62.0938,10.2839 61.9219,9.76563 61.9219,9.01563 L61.9219,5.40625 L61.2031,5.40625 L61.2031,4.98438 L61.9219,4.98438 L61.9219,3.28125 L62.4219,3.28125 M66.2188,2.64063 L66.7031,2.64063 L66.7031,11 L66.2188,11 L66.2188,2.64063 M73.9531,7.75 L73.9531,8.0625 L69.3906,8.0625 C69.3906,9.02083 69.5781,9.69792 69.9531,10.0938 C70.3698,10.5208 70.9844,10.7344 71.7969,10.7344 C72.0156,10.7344 72.3021,10.6875 72.6563,10.5938 C73.0104,10.5 73.3646,10.3594 73.7188,10.1719 L73.7188,10.6875 C73.3646,10.8438 73.0026,10.9609 72.6328,11.0391 C72.263,11.1172 71.9688,11.1563 71.75,11.1563 C70.8229,11.1563 70.125,10.9063 69.6563,10.4063 C69.1458,9.875 68.8906,9.09375 68.8906,8.0625 C68.8906,6.98958 69.1198,6.1875 69.5781,5.65625 C70.0573,5.11458 70.724,4.84375 71.5781,4.84375 C72.3594,4.84375 72.9531,5.10417 73.3594,5.625 C73.7552,6.16667 73.9531,6.875 73.9531,7.75 M73.4531,7.64063 C73.4531,6.79688 73.2604,6.18229 72.875,5.79688 C72.5625,5.45313 72.1302,5.28125 71.5781,5.28125 C70.9844,5.28125 70.4844,5.45833 70.0781,5.8125 C69.7031,6.14583 69.4792,6.75521 69.4063,7.64063 L73.4531,7.64063"/>
</g>

<g fill="none" stroke="#000000" stroke-opacity="1" stroke-width="1" stroke-linecap="square" stroke-linejoin="bevel" transform="matrix(2,0,0,2,648.777,22)"
font-family="sans" font-size="11" font-weight="100" font-style="normal" 
>
</g>

<g fill="none" stroke="#000000" stroke-opacity="1" stroke-width="1" stroke-linecap="square" stroke-linejoin="bevel" transform="matrix(2,0,0,2,648.777,22)"
font-family="Noto Sans" font-size="9" font-weight="400" font-style="normal" 
>
</g>

<g fill="none" stroke="#000000" stroke-opacity="1" stroke-width="1" stroke-linecap="square" stroke-linejoin="bevel" transform="matrix(2,0,0,2,-0.002,72)"
font-family="Noto Sans" font-size="9" font-weight="400" font-style="normal" 
>
</g>

<g fill="none" stroke="#000000" stroke-opacity="1" stroke-width="1" stroke-linecap="square" stroke-linejoin="bevel" transform="matrix(2,0,0,2,-0.002,72)"
font-family="Noto Sans" font-size="9" font-weight="400" font-style="normal" 
>
</g>

<g fill="none" stroke="#000000" stroke-opacity="1" stroke-width="1" stroke-linecap="square" stroke-linejoin="bevel" transform="matrix(2,0,0,2,-0.002,72)"
font-family="Noto Sans" font-size="9" font-weight="400" font-style="normal" 
>
</g>

<g fill="none" stroke="#000000" stroke-opacity="1" stroke-width="1" stroke-linecap="square" stroke-linejoin="round" transform="matrix(2,0,0,2,-0.002,72)"
font-family="Noto Sans" font-size="9" font-weight="400" font-style="normal" 
>
<ellipse cx="96.841" cy="-18" rx="96.34" ry="17.5"/>
</g>

<g fill="none" stroke="#000000" stroke-opacity="1" stroke-width="1" stroke-linecap="square" stroke-linejoin="bevel" transform="matrix(2,0,0,2,-0.002,72)"
font-family="Noto Sans" font-size="9" font-weight="400" font-style="normal" 
>
</g>

<g fill="none" stroke="#000000" stroke-opacity="1" stroke-width="1" stroke-linecap="square" stroke-linejoin="bevel" transform="matrix(2,0,0,2,65.055,22)"
font-family="Noto Sans" font-size="9" font-weight="400" font-style="normal" 
>
</g>

<g fill="none" stroke="#000000" stroke-opacity="1" stroke-width="1" stroke-linecap="square" stroke-linejoin="bevel" transform="matrix(2,0,0,2,65.055,22)"
font-family="sans" font-size="11" font-weight="100" font-style="normal" 
>
</g>

<g fill="#000000" fill-opacity="1" stroke="#000000" stroke-opacity="1" stroke-width="1" stroke-linecap="square" stroke-linejoin="round" transform="matrix(2,0,0,2,65.055,22)"
font-family="sans" font-size="11" font-weight="100" font-style="normal" 
>
<path vector-effect="none" fill-rule="nonzero" d="M2.96875,2.98438 L3.53125,2.98438 L0.734375,12.0156 L0.171875,12.0156 L2.96875,2.98438 M5.04688,2.98438 L5.57813,2.98438 L5.57813,10.5625 L9.48438,10.5625 L9.48438,11 L5.04688,11 L5.04688,2.98438 M14.6563,6.01563 C14.3021,5.52604 13.8177,5.28125 13.2031,5.28125 C12.5885,5.28125 12.1042,5.52604 11.75,6.01563 C11.3958,6.49479 11.2188,7.15104 11.2188,7.98438 C11.2188,8.83854 11.3958,9.51042 11.75,10 C12.1042,10.4896 12.5885,10.7344 13.2031,10.7344 C13.8177,10.7344 14.3021,10.4896 14.6563,10 C15.0104,9.5 15.1875,8.82813 15.1875,7.98438 C15.1875,7.16146 15.0104,6.50521 14.6563,6.01563 M13.2031,4.84375 C13.9635,4.84375 14.5677,5.13021 15.0156,5.70313 C15.4635,6.27604 15.6875,7.03646 15.6875,7.98438 C15.6875,8.97396 15.4635,9.75521 15.0156,10.3281 C14.5677,10.901 13.9635,11.1875 13.2031,11.1875 C12.4219,11.1875 11.8073,10.901 11.3594,10.3281 C10.9219,9.75521 10.7031,8.97396 10.7031,7.98438 C10.7031,7.02604 10.9271,6.26302 11.375,5.69531 C11.8229,5.1276 12.4323,4.84375 13.2031,4.84375 M17.25,4.98438 L17.7656,4.98438 L19.7969,10.4531 L21.8438,4.98438 L22.3594,4.98438 L20.125,11 L19.4844,11 L17.25,4.98438 M28.9844,7.75 L28.9844,8.0625 L24.4219,8.0625 C24.4219,9.02083 24.6094,9.69792 24.9844,10.0938 C25.401,10.5208 26.0156,10.7344 26.8281,10.7344 C27.0469,10.7344 27.3333,10.6875 27.6875,10.5938 C28.0417,10.5 28.3958,10.3594 28.75,10.1719 L28.75,10.6875 C28.3958,10.8438 28.0339,10.9609 27.6641,11.0391 C27.2943,11.1172 27,11.1563 26.7813,11.1563 C25.8542,11.1563 25.1563,10.9063 24.6875,10.4063 C24.1771,9.875 23.9219,9.09375 23.9219,8.0625 C23.9219,6.98958 24.151,6.1875 24.6094,5.65625 C25.0885,5.11458 25.7552,4.84375 26.6094,4.84375 C27.3906,4.84375 27.9844,5.10417 28.3906,5.625 C28.7865,6.16667 28.9844,6.875 28.9844,7.75 M28.4844,7.64063 C28.4844,6.79688 28.2917,6.18229 27.9063,5.79688 C27.5938,5.45313 27.1615,5.28125 26.6094,5.28125 C26.0156,5.28125 25.5156,5.45833 25.1094,5.8125 C24.7344,6.14583 24.5104,6.75521 24.4375,7.64063 L28.4844,7.64063 M31.0625,2.64063 L31.5469,2.64063 L31.5469,11 L31.0625,11 L31.0625,2.64063 M36.1406,11.5625 C35.9219,12.0938 35.6875,12.4635 35.4375,12.6719 C35.1042,12.9427 34.7813,13.0781 34.4688,13.0781 L33.7344,13.0781 L33.7344,12.6563 L34.3594,12.6563 C34.6198,12.6563 34.849,12.5729 35.0469,12.4063 C35.2969,12.1875 35.5052,11.8698 35.6719,11.4531 L35.8438,11 L33.4531,4.98438 L33.9844,4.98438 L36.1094,10.3438 L38.25,4.98438 L38.7813,4.98438 L36.1406,11.5625 M44.9688,13.1719 L44.9688,13.5938 L39.25,13.5938 L39.25,13.1719 L44.9688,13.1719 M46.0469,8.60938 L46.0469,4.98438 L46.5313,4.98438 L46.5313,8.57813 C46.5313,9.35938 46.6563,9.90885 46.9063,10.2266 C47.1563,10.5443 47.526,10.7031 48.0156,10.7031 C48.5885,10.7031 49.0781,10.5313 49.4844,10.1875 C49.8906,9.84375 50.0938,9.24479 50.0938,8.39063 L50.0938,4.98438 L50.5781,4.98438 L50.5781,11 L50.0938,11 L50.0938,9.875 C49.9167,10.2396 49.6823,10.5156 49.3906,10.7031 C48.974,10.9948 48.5104,11.1406 48,11.1406 C47.4063,11.1406 46.9323,10.9375 46.5781,10.5313 C46.224,10.1354 46.0469,9.49479 46.0469,8.60938 M56.3438,5.40625 C56.2604,5.36458 56.151,5.33333 56.0156,5.3125 C55.8906,5.29167 55.7396,5.28125 55.5625,5.28125 C54.9479,5.28125 54.4427,5.50521 54.0469,5.95313 C53.724,6.31771 53.5625,6.94271 53.5625,7.82813 L53.5625,11 L53.0781,11 L53.0781,4.98438 L53.5625,4.98438 L53.5625,6.10938 C53.7292,5.78646 53.9583,5.51563 54.25,5.29688 C54.6458,4.99479 55.1146,4.84375 55.6563,4.84375 C55.8021,4.84375 55.9271,4.84896 56.0313,4.85938 C56.1354,4.85938 56.2396,4.86979 56.3438,4.89063 L56.3438,5.40625 M58.1094,3.28125 L58.1094,4.98438 L60.1406,4.98438 L60.1406,5.40625 L58.1094,5.40625 L58.1094,9.01563 C58.1094,9.47396 58.1667,9.79688 58.2813,9.98438 C58.5313,10.3802 58.8906,10.5781 59.3594,10.5781 L60.1406,10.5781 L60.1406,11 L59.375,11 C58.8854,11 58.4688,10.8568 58.125,10.5703 C57.7813,10.2839 57.6094,9.76563 57.6094,9.01563 L57.6094,5.40625 L56.8906,5.40625 L56.8906,4.98438 L57.6094,4.98438 L57.6094,3.28125 L58.1094,3.28125 M61.9063,2.64063 L62.3906,2.64063 L62.3906,11 L61.9063,11 L61.9063,2.64063 M69.6406,7.75 L69.6406,8.0625 L65.0781,8.0625 C65.0781,9.02083 65.2656,9.69792 65.6406,10.0938 C66.0573,10.5208 66.6719,10.7344 67.4844,10.7344 C67.7031,10.7344 67.9896,10.6875 68.3438,10.5938 C68.6979,10.5 69.0521,10.3594 69.4063,10.1719 L69.4063,10.6875 C69.0521,10.8438 68.6901,10.9609 68.3203,11.0391 C67.9505,11.1172 67.6563,11.1563 67.4375,11.1563 C66.5104,11.1563 65.8125,10.9063 65.3438,10.4063 C64.8333,9.875 64.5781,9.09375 64.5781,8.0625 C64.5781,6.98958 64.8073,6.1875 65.2656,5.65625 C65.7448,5.11458 66.4115,4.84375 67.2656,4.84375 C68.0469,4.84375 68.6406,5.10417 69.0469,5.625 C69.4427,6.16667 69.6406,6.875 69.6406,7.75 M69.1406,7.64063 C69.1406,6.79688 68.9479,6.18229 68.5625,5.79688 C68.25,5.45313 67.8177,5.28125 67.2656,5.28125 C66.6719,5.28125 66.1719,5.45833 65.7656,5.8125 C65.3906,6.14583 65.1667,6.75521 65.0938,7.64063 L69.1406,7.64063 M76.0781,13.1719 L76.0781,13.5938 L70.3594,13.5938 L70.3594,13.1719 L76.0781,13.1719 M81.3281,5.28125 L81.3281,5.79688 C81.0365,5.61979 80.7917,5.5 80.5938,5.4375 C80.2604,5.33333 79.9427,5.28125 79.6406,5.28125 C78.776,5.28125 78.1563,5.5026 77.7813,5.94531 C77.4063,6.38802 77.2188,7.07292 77.2188,8 C77.2188,8.9375 77.4063,9.6276 77.7813,10.0703 C78.1563,10.513 78.776,10.7344 79.6406,10.7344 C79.9323,10.7344 80.2135,10.6927 80.4844,10.6094 C80.776,10.5365 81.0573,10.4219 81.3281,10.2656 L81.3281,10.7656 C81.0573,10.901 80.776,11 80.4844,11.0625 C80.1823,11.125 79.8854,11.1563 79.5938,11.1563 C78.7188,11.1563 78.0208,10.9167 77.5,10.4375 C76.9792,9.95833 76.7188,9.14323 76.7188,7.99219 C76.7188,6.84115 76.9792,6.02604 77.5,5.54688 C78.0208,5.07813 78.7188,4.84375 79.5938,4.84375 C79.8854,4.84375 80.1927,4.88542 80.5156,4.96875 C80.8385,5.04167 81.1094,5.14583 81.3281,5.28125 M86.8438,6.01563 C86.4896,5.52604 86.0052,5.28125 85.3906,5.28125 C84.776,5.28125 84.2917,5.52604 83.9375,6.01563 C83.5833,6.49479 83.4063,7.15104 83.4063,7.98438 C83.4063,8.83854 83.5833,9.51042 83.9375,10 C84.2917,10.4896 84.776,10.7344 85.3906,10.7344 C86.0052,10.7344 86.4896,10.4896 86.8438,10 C87.1979,9.5 87.375,8.82813 87.375,7.98438 C87.375,7.16146 87.1979,6.50521 86.8438,6.01563 M85.3906,4.84375 C86.151,4.84375 86.7552,5.13021 87.2031,5.70313 C87.651,6.27604 87.875,7.03646 87.875,7.98438 C87.875,8.97396 87.651,9.75521 87.2031,10.3281 C86.7552,10.901 86.151,11.1875 85.3906,11.1875 C84.6094,11.1875 83.9948,10.901 83.5469,10.3281 C83.1094,9.75521 82.8906,8.97396 82.8906,7.98438 C82.8906,7.02604 83.1146,6.26302 83.5625,5.69531 C84.0104,5.1276 84.6198,4.84375 85.3906,4.84375 M94.5313,7.375 L94.5313,11 L94.0313,11 L94.0313,7.40625 C94.0313,6.625 93.9063,6.07552 93.6563,5.75781 C93.4063,5.4401 93.0365,5.28125 92.5469,5.28125 C91.974,5.28125 91.4896,5.45313 91.0938,5.79688 C90.6771,6.14063 90.4688,6.73958 90.4688,7.59375 L90.4688,11 L89.9844,11 L89.9844,4.98438 L90.4688,4.98438 L90.4688,6.10938 C90.6458,5.74479 90.8802,5.46875 91.1719,5.28125 C91.5885,4.98958 92.0521,4.84375 92.5625,4.84375 C93.1667,4.84375 93.6458,5.04688 94,5.45313 C94.3542,5.84896 94.5313,6.48958 94.5313,7.375 M97.4688,3.28125 L97.4688,4.98438 L99.5,4.98438 L99.5,5.40625 L97.4688,5.40625 L97.4688,9.01563 C97.4688,9.47396 97.526,9.79688 97.6406,9.98438 C97.8906,10.3802 98.25,10.5781 98.7188,10.5781 L99.5,10.5781 L99.5,11 L98.7344,11 C98.2448,11 97.8281,10.8568 97.4844,10.5703 C97.1406,10.2839 96.9688,9.76563 96.9688,9.01563 L96.9688,5.40625 L96.25,5.40625 L96.25,4.98438 L96.9688,4.98438 L96.9688,3.28125 L97.4688,3.28125 M104.531,5.40625 C104.448,5.36458 104.339,5.33333 104.203,5.3125 C104.078,5.29167 103.927,5.28125 103.75,5.28125 C103.135,5.28125 102.63,5.50521 102.234,5.95313 C101.911,6.31771 101.75,6.94271 101.75,7.82813 L101.75,11 L101.266,11 L101.266,4.98438 L101.75,4.98438 L101.75,6.10938 C101.917,5.78646 102.146,5.51563 102.438,5.29688 C102.833,4.99479 103.302,4.84375 103.844,4.84375 C103.99,4.84375 104.115,4.84896 104.219,4.85938 C104.323,4.85938 104.427,4.86979 104.531,4.89063 L104.531,5.40625 M109.359,6.01563 C109.005,5.52604 108.521,5.28125 107.906,5.28125 C107.292,5.28125 106.807,5.52604 106.453,6.01563 C106.099,6.49479 105.922,7.15104 105.922,7.98438 C105.922,8.83854 106.099,9.51042 106.453,10 C106.807,10.4896 107.292,10.7344 107.906,10.7344 C108.521,10.7344 109.005,10.4896 109.359,10 C109.714,9.5 109.891,8.82813 109.891,7.98438 C109.891,7.16146 109.714,6.50521 109.359,6.01563 M107.906,4.84375 C108.667,4.84375 109.271,5.13021 109.719,5.70313 C110.167,6.27604 110.391,7.03646 110.391,7.98438 C110.391,8.97396 110.167,9.75521 109.719,10.3281 C109.271,10.901 108.667,11.1875 107.906,11.1875 C107.125,11.1875 106.51,10.901 106.063,10.3281 C105.625,9.75521 105.406,8.97396 105.406,7.98438 C105.406,7.02604 105.63,6.26302 106.078,5.69531 C106.526,5.1276 107.135,4.84375 107.906,4.84375 M112.5,2.64063 L112.984,2.64063 L112.984,11 L112.5,11 L112.5,2.64063 M115.547,2.64063 L116.031,2.64063 L116.031,11 L115.547,11 L115.547,2.64063 M123.281,7.75 L123.281,8.0625 L118.719,8.0625 C118.719,9.02083 118.906,9.69792 119.281,10.0938 C119.698,10.5208 120.313,10.7344 121.125,10.7344 C121.344,10.7344 121.63,10.6875 121.984,10.5938 C122.339,10.5 122.693,10.3594 123.047,10.1719 L123.047,10.6875 C122.693,10.8438 122.331,10.9609 121.961,11.0391 C121.591,11.1172 121.297,11.1563 121.078,11.1563 C120.151,11.1563 119.453,10.9063 118.984,10.4063 C118.474,9.875 118.219,9.09375 118.219,8.0625 C118.219,6.98958 118.448,6.1875 118.906,5.65625 C119.385,5.11458 120.052,4.84375 120.906,4.84375 C121.688,4.84375 122.281,5.10417 122.688,5.625 C123.083,6.16667 123.281,6.875 123.281,7.75 M122.781,7.64063 C122.781,6.79688 122.589,6.18229 122.203,5.79688 C121.891,5.45313 121.458,5.28125 120.906,5.28125 C120.313,5.28125 119.813,5.45833 119.406,5.8125 C119.031,6.14583 118.807,6.75521 118.734,7.64063 L122.781,7.64063 M128.625,5.40625 C128.542,5.36458 128.432,5.33333 128.297,5.3125 C128.172,5.29167 128.021,5.28125 127.844,5.28125 C127.229,5.28125 126.724,5.50521 126.328,5.95313 C126.005,6.31771 125.844,6.94271 125.844,7.82813 L125.844,11 L125.359,11 L125.359,4.98438 L125.844,4.98438 L125.844,6.10938 C126.01,5.78646 126.24,5.51563 126.531,5.29688 C126.927,4.99479 127.396,4.84375 127.938,4.84375 C128.083,4.84375 128.208,4.84896 128.313,4.85938 C128.417,4.85938 128.521,4.86979 128.625,4.89063 L128.625,5.40625"/>
</g>

<g fill="none" stroke="#000000" stroke-opacity="1" stroke-width="1" stroke-linecap="square" stroke-linejoin="bevel" transform="matrix(2,0,0,2,65.055,22)"
font-family="sans" font-size="11" font-weight="100" font-style="normal" 
>
</g>

<g fill="none" stroke="#000000" stroke-opacity="1" stroke-width="1" stroke-linecap="square" stroke-linejoin="bevel" transform="matrix(2,0,0,2,65.055,22)"
font-family="Noto Sans" font-size="9" font-weight="400" font-style="normal" 
>
</g>

<g fill="none" stroke="#000000" stroke-opacity="1" stroke-width="1" stroke-linecap="square" stroke-linejoin="bevel" transform="matrix(2,0,0,2,-0.002,72)"
font-family="Noto Sans" font-size="9" font-weight="400" font-style="normal" 
>
</g>

<g fill="none" stroke="#000000" stroke-opacity="1" stroke-width="1" stroke-linecap="square" stroke-linejoin="bevel" transform="matrix(2,0,0,2,-0.002,72)"
font-family="Noto Sans" font-size="9" font-weight="400" font-style="normal" 
>
</g>

<g fill="none" stroke="#000000" stroke-opacity="1" stroke-width="1" stroke-linecap="square" stroke-linejoin="bevel" transform="matrix(2,0,0,2,-0.002,72)"
font-family="Noto Sans" font-size="9" font-weight="400" font-style="normal" 
>
</g>

<g fill="none" stroke="#000000" stroke-opacity="1" stroke-width="1" stroke-linecap="square" stroke-linejoin="round" transform="matrix(2,0,0,2,-0.002,72)"
font-family="Noto Sans" font-size="9" font-weight="400" font-style="normal" 
>
<path vector-effect="none" fill-rule="evenodd" d="M193.99,-18 C225.83,-18 260.6,-18 290.19,-18 "/>
</g>

<g fill="none" stroke="#000000" stroke-opacity="1" stroke-width="1" stroke-linecap="square" stroke-linejoin="bevel" transform="matrix(2,0,0,2,-0.002,72)"
font-family="Noto Sans" font-size="9" font-weight="400" font-style="normal" 
>
</g>

<g fill="none" stroke="#000000" stroke-opacity="1" stroke-width="1" stroke-linecap="square" stroke-linejoin="bevel" transform="matrix(2,0,0,2,404.514,7)"
font-family="Noto Sans" font-size="9" font-weight="400" font-style="normal" 
>
</g>

<g fill="none" stroke="#000000" stroke-opacity="1" stroke-width="1" stroke-linecap="square" stroke-linejoin="bevel" transform="matrix(2,0,0,2,404.514,7)"
font-family="sans" font-size="11" font-weight="100" font-style="normal" 
>
</g>

<g fill="#000000" fill-opacity="1" stroke="#000000" stroke-opacity="1" stroke-width="1" stroke-linecap="square" stroke-linejoin="round" transform="matrix(2,0,0,2,404.514,7)"
font-family="sans" font-size="11" font-weight="100" font-style="normal" 
>
<path vector-effect="none" fill-rule="nonzero" d="M2.96875,2.98438 L3.53125,2.98438 L0.734375,12.0156 L0.171875,12.0156 L2.96875,2.98438 M5.46875,3.28125 L5.46875,4.98438 L7.5,4.98438 L7.5,5.40625 L5.46875,5.40625 L5.46875,9.01563 C5.46875,9.47396 5.52604,9.79688 5.64063,9.98438 C5.89063,10.3802 6.25,10.5781 6.71875,10.5781 L7.5,10.5781 L7.5,11 L6.73438,11 C6.24479,11 5.82813,10.8568 5.48438,10.5703 C5.14063,10.2839 4.96875,9.76563 4.96875,9.01563 L4.96875,5.40625 L4.25,5.40625 L4.25,4.98438 L4.96875,4.98438 L4.96875,3.28125 L5.46875,3.28125 M9.20313,8.60938 L9.20313,4.98438 L9.6875,4.98438 L9.6875,8.57813 C9.6875,9.35938 9.8125,9.90885 10.0625,10.2266 C10.3125,10.5443 10.6823,10.7031 11.1719,10.7031 C11.7448,10.7031 12.2344,10.5313 12.6406,10.1875 C13.0469,9.84375 13.25,9.24479 13.25,8.39063 L13.25,4.98438 L13.7344,4.98438 L13.7344,11 L13.25,11 L13.25,9.875 C13.0729,10.2396 12.8385,10.5156 12.5469,10.7031 C12.1302,10.9948 11.6667,11.1406 11.1563,11.1406 C10.5625,11.1406 10.0885,10.9375 9.73438,10.5313 C9.38021,10.1354 9.20313,9.49479 9.20313,8.60938 M19.5,5.40625 C19.4167,5.36458 19.3073,5.33333 19.1719,5.3125 C19.0469,5.29167 18.8958,5.28125 18.7188,5.28125 C18.1042,5.28125 17.599,5.50521 17.2031,5.95313 C16.8802,6.31771 16.7188,6.94271 16.7188,7.82813 L16.7188,11 L16.2344,11 L16.2344,4.98438 L16.7188,4.98438 L16.7188,6.10938 C16.8854,5.78646 17.1146,5.51563 17.4063,5.29688 C17.8021,4.99479 18.2708,4.84375 18.8125,4.84375 C18.9583,4.84375 19.0833,4.84896 19.1875,4.85938 C19.2917,4.85938 19.3958,4.86979 19.5,4.89063 L19.5,5.40625 M21.2656,3.28125 L21.2656,4.98438 L23.2969,4.98438 L23.2969,5.40625 L21.2656,5.40625 L21.2656,9.01563 C21.2656,9.47396 21.3229,9.79688 21.4375,9.98438 C21.6875,10.3802 22.0469,10.5781 22.5156,10.5781 L23.2969,10.5781 L23.2969,11 L22.5313,11 C22.0417,11 21.625,10.8568 21.2813,10.5703 C20.9375,10.2839 20.7656,9.76563 20.7656,9.01563 L20.7656,5.40625 L20.0469,5.40625 L20.0469,4.98438 L20.7656,4.98438 L20.7656,3.28125 L21.2656,3.28125 M25.0625,2.64063 L25.5469,2.64063 L25.5469,11 L25.0625,11 L25.0625,2.64063 M32.7969,7.75 L32.7969,8.0625 L28.2344,8.0625 C28.2344,9.02083 28.4219,9.69792 28.7969,10.0938 C29.2135,10.5208 29.8281,10.7344 30.6406,10.7344 C30.8594,10.7344 31.1458,10.6875 31.5,10.5938 C31.8542,10.5 32.2083,10.3594 32.5625,10.1719 L32.5625,10.6875 C32.2083,10.8438 31.8464,10.9609 31.4766,11.0391 C31.1068,11.1172 30.8125,11.1563 30.5938,11.1563 C29.6667,11.1563 28.9688,10.9063 28.5,10.4063 C27.9896,9.875 27.7344,9.09375 27.7344,8.0625 C27.7344,6.98958 27.9635,6.1875 28.4219,5.65625 C28.901,5.11458 29.5677,4.84375 30.4219,4.84375 C31.2031,4.84375 31.7969,5.10417 32.2031,5.625 C32.599,6.16667 32.7969,6.875 32.7969,7.75 M32.2969,7.64063 C32.2969,6.79688 32.1042,6.18229 31.7188,5.79688 C31.4063,5.45313 30.974,5.28125 30.4219,5.28125 C29.8281,5.28125 29.3281,5.45833 28.9219,5.8125 C28.5469,6.14583 28.3229,6.75521 28.25,7.64063 L32.2969,7.64063 M35.2656,10.5625 L37.0313,10.5625 L37.0313,3.46875 L34.8281,4.35938 L34.8281,3.85938 L37.0156,2.98438 L37.5625,2.98438 L37.5625,10.5625 L39.3438,10.5625 L39.3438,11 L35.2656,11 L35.2656,10.5625 M43.5781,2.98438 L44.1406,2.98438 L41.3438,12.0156 L40.7813,12.0156 L43.5781,2.98438 M49.6719,5.28125 L49.6719,5.79688 C49.3802,5.61979 49.1354,5.5 48.9375,5.4375 C48.6042,5.33333 48.2865,5.28125 47.9844,5.28125 C47.1198,5.28125 46.5,5.5026 46.125,5.94531 C45.75,6.38802 45.5625,7.07292 45.5625,8 C45.5625,8.9375 45.75,9.6276 46.125,10.0703 C46.5,10.513 47.1198,10.7344 47.9844,10.7344 C48.276,10.7344 48.5573,10.6927 48.8281,10.6094 C49.1198,10.5365 49.401,10.4219 49.6719,10.2656 L49.6719,10.7656 C49.401,10.901 49.1198,11 48.8281,11.0625 C48.526,11.125 48.2292,11.1563 47.9375,11.1563 C47.0625,11.1563 46.3646,10.9167 45.8438,10.4375 C45.3229,9.95833 45.0625,9.14323 45.0625,7.99219 C45.0625,6.84115 45.3229,6.02604 45.8438,5.54688 C46.3646,5.07813 47.0625,4.84375 47.9375,4.84375 C48.2292,4.84375 48.5365,4.88542 48.8594,4.96875 C49.1823,5.04167 49.4531,5.14583 49.6719,5.28125 M55.9375,6.29688 C56.125,5.80729 56.4167,5.44271 56.8125,5.20313 C57.1979,4.96354 57.651,4.84375 58.1719,4.84375 C58.6927,4.84375 59.1094,5.02604 59.4219,5.39063 C59.7448,5.75521 59.9063,6.41667 59.9063,7.375 L59.9063,11 L59.4219,11 L59.4219,7.40625 C59.4219,6.57292 59.3073,6.01042 59.0781,5.71875 C58.849,5.42708 58.5417,5.28125 58.1563,5.28125 C57.6042,5.28125 57.1198,5.44792 56.7031,5.78125 C56.2344,6.15625 56,6.76042 56,7.59375 L56,11 L55.5156,11 L55.5156,7.40625 C55.5156,6.60417 55.4036,6.04948 55.1797,5.74219 C54.9557,5.4349 54.6458,5.28125 54.25,5.28125 C53.6979,5.28125 53.2135,5.45313 52.7969,5.79688 C52.3281,6.16146 52.0938,6.76042 52.0938,7.59375 L52.0938,11 L51.6094,11 L51.6094,4.98438 L52.0938,4.98438 L52.0938,6.10938 C52.2708,5.71354 52.5469,5.40104 52.9219,5.17188 C53.2865,4.95313 53.7396,4.84375 54.2813,4.84375 C54.6354,4.84375 54.974,4.95833 55.2969,5.1875 C55.5469,5.375 55.7604,5.74479 55.9375,6.29688 M66.3125,6.35938 L66.3125,2.64063 L66.7813,2.64063 L66.7813,11 L66.3125,11 L66.3125,9.64063 C66.0833,10.1615 65.8333,10.5156 65.5625,10.7031 C65.1667,11.0052 64.7865,11.1563 64.4219,11.1563 C63.7135,11.1563 63.1224,10.8672 62.6484,10.2891 C62.1745,9.71094 61.9375,8.94792 61.9375,8 C61.9375,7.05208 62.1745,6.28906 62.6484,5.71094 C63.1224,5.13281 63.7135,4.84375 64.4219,4.84375 C64.7865,4.84375 65.1667,4.98958 65.5625,5.28125 C65.8333,5.47917 66.0833,5.83854 66.3125,6.35938 M63.0781,5.90625 C62.6615,6.32292 62.4531,7.02083 62.4531,8 C62.4531,8.97917 62.6615,9.67708 63.0781,10.0938 C63.4948,10.5104 63.9323,10.7188 64.3906,10.7188 C64.8385,10.7188 65.2708,10.5104 65.6875,10.0938 C66.0938,9.67708 66.2969,8.97917 66.2969,8 C66.2969,7.02083 66.0938,6.32292 65.6875,5.90625 C65.2708,5.48958 64.8385,5.28125 64.3906,5.28125 C63.9323,5.28125 63.4948,5.48958 63.0781,5.90625 M73.6406,13.1719 L73.6406,13.5938 L67.9219,13.5938 L67.9219,13.1719 L73.6406,13.1719 M74.2344,4.98438 L74.75,4.98438 L76.7813,10.4531 L78.8281,4.98438 L79.3438,4.98438 L77.1094,11 L76.4688,11 L74.2344,4.98438 M85.9688,7.75 L85.9688,8.0625 L81.4063,8.0625 C81.4063,9.02083 81.5938,9.69792 81.9688,10.0938 C82.3854,10.5208 83,10.7344 83.8125,10.7344 C84.0313,10.7344 84.3177,10.6875 84.6719,10.5938 C85.026,10.5 85.3802,10.3594 85.7344,10.1719 L85.7344,10.6875 C85.3802,10.8438 85.0182,10.9609 84.6484,11.0391 C84.2786,11.1172 83.9844,11.1563 83.7656,11.1563 C82.8385,11.1563 82.1406,10.9063 81.6719,10.4063 C81.1615,9.875 80.9063,9.09375 80.9063,8.0625 C80.9063,6.98958 81.1354,6.1875 81.5938,5.65625 C82.0729,5.11458 82.7396,4.84375 83.5938,4.84375 C84.375,4.84375 84.9688,5.10417 85.375,5.625 C85.7708,6.16667 85.9688,6.875 85.9688,7.75 M85.4688,7.64063 C85.4688,6.79688 85.276,6.18229 84.8906,5.79688 C84.5781,5.45313 84.1458,5.28125 83.5938,5.28125 C83,5.28125 82.5,5.45833 82.0938,5.8125 C81.7188,6.14583 81.4948,6.75521 81.4219,7.64063 L85.4688,7.64063 M88.0469,2.64063 L88.5313,2.64063 L88.5313,11 L88.0469,11 L88.0469,2.64063"/>
</g>

<g fill="none" stroke="#000000" stroke-opacity="1" stroke-width="1" stroke-linecap="square" stroke-linejoin="bevel" transform="matrix(2,0,0,2,404.514,7)"
font-family="sans" font-size="11" font-weight="100" font-style="normal" 
>
</g>

<g fill="none" stroke="#000000" stroke-opacity="1" stroke-width="1" stroke-linecap="square" stroke-linejoin="bevel" transform="matrix(2,0,0,2,404.514,7)"
font-family="Noto Sans" font-size="9" font-weight="400" font-style="normal" 
>
</g>

<g fill="none" stroke="#000000" stroke-opacity="1" stroke-width="1" stroke-linecap="square" stroke-linejoin="bevel" transform="matrix(2,0,0,2,-0.002,72)"
font-family="Noto Sans" font-size="9" font-weight="400" font-style="normal" 
>
</g>

<g fill="#000000" fill-opacity="1" stroke="#000000" stroke-opacity="1" stroke-width="1" stroke-linecap="square" stroke-linejoin="round" transform="matrix(2,0,0,2,-0.002,72)"
font-family="Noto Sans" font-size="9" font-weight="400" font-style="normal" 
>
<path vector-effect="none" fill-rule="evenodd" d="M290.19,-18 L290.19,-14.416 L300.43,-18 L290.19,-21.584 L290.19,-18"/>
</g>

<g fill="none" stroke="#000000" stroke-opacity="1" stroke-width="1" stroke-linecap="square" stroke-linejoin="bevel" transform="matrix(2,0,0,2,-0.002,72)"
font-family="Noto Sans" font-size="9" font-weight="400" font-style="normal" 
>
</g>

<g fill="none" stroke="#000000" stroke-opacity="1" stroke-width="1" stroke-linecap="square" stroke-linejoin="bevel" transform="matrix(1,0,0,1,0,0)"
font-family="Noto Sans" font-size="9" font-weight="400" font-style="normal" 
>
</g>
</g>
</svg>
