<?xml version="1.0" encoding="UTF-8" standalone="no"?>
<svg width="306.564mm" height="25.4mm"
 xmlns="http://www.w3.org/2000/svg" xmlns:xlink="http://www.w3.org/1999/xlink"  version="1.2" baseProfile="tiny">
<title>Qt SVG Document</title>
<desc>Generated with Qt</desc>
<defs>
</defs>
<g fill="none" stroke="black" stroke-width="1" fill-rule="evenodd" stroke-linecap="square" stroke-linejoin="bevel" >

<g fill="none" stroke="#000000" stroke-opacity="1" stroke-width="1" stroke-linecap="square" stroke-linejoin="bevel" transform="matrix(1,0,0,1,0,0)"
font-family="Noto Sans" font-size="9" font-weight="400" font-style="normal" 
>
</g>

<g fill="none" stroke="#000000" stroke-opacity="1" stroke-width="1" stroke-linecap="square" stroke-linejoin="bevel" transform="matrix(1,0,0,1,0,0)"
font-family="Noto Sans" font-size="9" font-weight="400" font-style="normal" 
>
</g>

<g fill="none" stroke="#000000" stroke-opacity="1" stroke-width="1" stroke-linecap="square" stroke-linejoin="bevel" transform="matrix(2,0,0,2,-0.0016,72)"
font-family="Noto Sans" font-size="9" font-weight="400" font-style="normal" 
>
</g>

<g fill="#ffffff" fill-opacity="1" stroke="none" transform="matrix(2,0,0,2,-0.0016,72)"
font-family="Noto Sans" font-size="9" font-weight="400" font-style="normal" 
>
<rect x="0.0008" y="-36" width="434.272" height="36"/>
</g>

<g fill="none" stroke="#000000" stroke-opacity="1" stroke-width="1" stroke-linecap="square" stroke-linejoin="bevel" transform="matrix(2,0,0,2,-0.0016,72)"
font-family="Noto Sans" font-size="9" font-weight="400" font-style="normal" 
>
</g>

<g fill="none" stroke="#000000" stroke-opacity="1" stroke-width="1" stroke-linecap="square" stroke-linejoin="bevel" transform="matrix(2,0,0,2,-0.0016,72)"
font-family="Noto Sans" font-size="9" font-weight="400" font-style="normal" 
>
</g>

<g fill="none" stroke="#000000" stroke-opacity="1" stroke-width="1" stroke-linecap="square" stroke-linejoin="bevel" transform="matrix(2,0,0,2,-0.0016,72)"
font-family="Noto Sans" font-size="9" font-weight="400" font-style="normal" 
>
</g>

<g fill="none" stroke="#000000" stroke-opacity="1" stroke-width="1" stroke-linecap="square" stroke-linejoin="bevel" transform="matrix(2,0,0,2,-0.0016,72)"
font-family="Noto Sans" font-size="9" font-weight="400" font-style="normal" 
>
</g>

<g fill="none" stroke="#000000" stroke-opacity="1" stroke-width="1" stroke-linecap="square" stroke-linejoin="round" transform="matrix(2,0,0,2,-0.0016,72)"
font-family="Noto Sans" font-size="9" font-weight="400" font-style="normal" 
>
<ellipse cx="345.23" cy="-18" rx="88.5424" ry="17.5"/>
</g>

<g fill="none" stroke="#000000" stroke-opacity="1" stroke-width="1" stroke-linecap="square" stroke-linejoin="bevel" transform="matrix(2,0,0,2,-0.0016,72)"
font-family="Noto Sans" font-size="9" font-weight="400" font-style="normal" 
>
</g>

<g fill="none" stroke="#000000" stroke-opacity="1" stroke-width="1" stroke-linecap="square" stroke-linejoin="bevel" transform="matrix(2,0,0,2,567.708,22)"
font-family="Noto Sans" font-size="9" font-weight="400" font-style="normal" 
>
</g>

<g fill="none" stroke="#000000" stroke-opacity="1" stroke-width="1" stroke-linecap="square" stroke-linejoin="bevel" transform="matrix(2,0,0,2,567.708,22)"
font-family="sans" font-size="11" font-weight="100" font-style="normal" 
>
</g>

<g fill="#000000" fill-opacity="1" stroke="#000000" stroke-opacity="1" stroke-width="1" stroke-linecap="square" stroke-linejoin="round" transform="matrix(2,0,0,2,567.708,22)"
font-family="sans" font-size="11" font-weight="100" font-style="normal" 
>
<path vector-effect="none" fill-rule="nonzero" d="M2.96875,2.98438 L3.53125,2.98438 L0.734375,12.0156 L0.171875,12.0156 L2.96875,2.98438 M8.21875,5.40625 C8.13542,5.36458 8.02604,5.33333 7.89063,5.3125 C7.76563,5.29167 7.61458,5.28125 7.4375,5.28125 C6.82292,5.28125 6.31771,5.50521 5.92188,5.95313 C5.59896,6.31771 5.4375,6.94271 5.4375,7.82813 L5.4375,11 L4.95313,11 L4.95313,4.98438 L5.4375,4.98438 L5.4375,6.10938 C5.60417,5.78646 5.83333,5.51563 6.125,5.29688 C6.52083,4.99479 6.98958,4.84375 7.53125,4.84375 C7.67708,4.84375 7.80208,4.84896 7.90625,4.85938 C8.01042,4.85938 8.11458,4.86979 8.21875,4.89063 L8.21875,5.40625 M13.0469,6.01563 C12.6927,5.52604 12.2083,5.28125 11.5938,5.28125 C10.9792,5.28125 10.4948,5.52604 10.1406,6.01563 C9.78646,6.49479 9.60938,7.15104 9.60938,7.98438 C9.60938,8.83854 9.78646,9.51042 10.1406,10 C10.4948,10.4896 10.9792,10.7344 11.5938,10.7344 C12.2083,10.7344 12.6927,10.4896 13.0469,10 C13.401,9.5 13.5781,8.82813 13.5781,7.98438 C13.5781,7.16146 13.401,6.50521 13.0469,6.01563 M11.5938,4.84375 C12.3542,4.84375 12.9583,5.13021 13.4063,5.70313 C13.8542,6.27604 14.0781,7.03646 14.0781,7.98438 C14.0781,8.97396 13.8542,9.75521 13.4063,10.3281 C12.9583,10.901 12.3542,11.1875 11.5938,11.1875 C10.8125,11.1875 10.1979,10.901 9.75,10.3281 C9.3125,9.75521 9.09375,8.97396 9.09375,7.98438 C9.09375,7.02604 9.31771,6.26302 9.76563,5.69531 C10.2135,5.1276 10.8229,4.84375 11.5938,4.84375 M19.9063,10.0938 C20.3229,9.67708 20.5313,8.97917 20.5313,8 C20.5313,7.02083 20.3229,6.32292 19.9063,5.90625 C19.4896,5.48958 19.0521,5.28125 18.5938,5.28125 C18.1458,5.28125 17.7135,5.48958 17.2969,5.90625 C16.8906,6.32292 16.6875,7.02083 16.6875,8 C16.6875,8.97917 16.8906,9.67708 17.2969,10.0938 C17.7135,10.5104 18.1458,10.7188 18.5938,10.7188 C19.0521,10.7188 19.4896,10.5104 19.9063,10.0938 M16.6719,6.35938 C16.901,5.83854 17.1458,5.47917 17.4063,5.28125 C17.8125,4.98958 18.1979,4.84375 18.5625,4.84375 C19.2708,4.84375 19.862,5.13281 20.3359,5.71094 C20.8099,6.28906 21.0469,7.05208 21.0469,8 C21.0469,8.94792 20.8099,9.71094 20.3359,10.2891 C19.862,10.8672 19.2708,11.1563 18.5625,11.1563 C18.1979,11.1563 17.8125,11.0052 17.4063,10.7031 C17.1458,10.5156 16.901,10.1615 16.6719,9.64063 L16.6719,11 L16.1875,11 L16.1875,2.64063 L16.6719,2.64063 L16.6719,6.35938 M26.7344,6.01563 C26.3802,5.52604 25.8958,5.28125 25.2813,5.28125 C24.6667,5.28125 24.1823,5.52604 23.8281,6.01563 C23.474,6.49479 23.2969,7.15104 23.2969,7.98438 C23.2969,8.83854 23.474,9.51042 23.8281,10 C24.1823,10.4896 24.6667,10.7344 25.2813,10.7344 C25.8958,10.7344 26.3802,10.4896 26.7344,10 C27.0885,9.5 27.2656,8.82813 27.2656,7.98438 C27.2656,7.16146 27.0885,6.50521 26.7344,6.01563 M25.2813,4.84375 C26.0417,4.84375 26.6458,5.13021 27.0938,5.70313 C27.5417,6.27604 27.7656,7.03646 27.7656,7.98438 C27.7656,8.97396 27.5417,9.75521 27.0938,10.3281 C26.6458,10.901 26.0417,11.1875 25.2813,11.1875 C24.5,11.1875 23.8854,10.901 23.4375,10.3281 C23,9.75521 22.7813,8.97396 22.7813,7.98438 C22.7813,7.02604 23.0052,6.26302 23.4531,5.69531 C23.901,5.1276 24.5104,4.84375 25.2813,4.84375 M30.3906,3.28125 L30.3906,4.98438 L32.4219,4.98438 L32.4219,5.40625 L30.3906,5.40625 L30.3906,9.01563 C30.3906,9.47396 30.4479,9.79688 30.5625,9.98438 C30.8125,10.3802 31.1719,10.5781 31.6406,10.5781 L32.4219,10.5781 L32.4219,11 L31.6563,11 C31.1667,11 30.75,10.8568 30.4063,10.5703 C30.0625,10.2839 29.8906,9.76563 29.8906,9.01563 L29.8906,5.40625 L29.1719,5.40625 L29.1719,4.98438 L29.8906,4.98438 L29.8906,3.28125 L30.3906,3.28125 M38.5469,13.1719 L38.5469,13.5938 L32.8281,13.5938 L32.8281,13.1719 L38.5469,13.1719 M43.0938,5.15625 L43.0938,5.70313 C42.7396,5.50521 42.5208,5.39583 42.4375,5.375 C42.1875,5.32292 41.875,5.29167 41.5,5.28125 C40.9375,5.28125 40.4948,5.39063 40.1719,5.60938 C39.9219,5.79688 39.7969,6.11458 39.7969,6.5625 C39.7969,6.875 39.9167,7.11458 40.1563,7.28125 C40.3958,7.46875 40.7448,7.61458 41.2031,7.71875 L41.5469,7.78125 C42.1198,7.90625 42.5521,8.08333 42.8438,8.3125 C43.1875,8.58333 43.3646,8.92708 43.375,9.34375 C43.375,9.90625 43.2083,10.349 42.875,10.6719 C42.5208,10.9948 41.9427,11.1563 41.1406,11.1563 C40.7031,11.1563 40.3698,11.125 40.1406,11.0625 C39.8594,10.9896 39.5677,10.8958 39.2656,10.7813 L39.2656,10.1563 C39.7031,10.4063 39.9844,10.5521 40.1094,10.5938 C40.4635,10.6875 40.8177,10.7344 41.1719,10.7344 C41.7448,10.7344 42.1719,10.6146 42.4531,10.375 C42.7344,10.125 42.875,9.80729 42.875,9.42188 C42.875,9.08854 42.7813,8.84896 42.5938,8.70313 C42.3229,8.48438 41.8958,8.30729 41.3125,8.17188 L40.9688,8.09375 C40.4583,7.96875 40.0729,7.80208 39.8125,7.59375 C39.4792,7.32292 39.3125,6.99479 39.3125,6.60938 C39.3125,5.98438 39.513,5.53385 39.9141,5.25781 C40.3151,4.98177 40.8073,4.84375 41.3906,4.84375 C41.8906,4.84375 42.2344,4.86979 42.4219,4.92188 C42.651,4.98438 42.875,5.0625 43.0938,5.15625 M45.9219,3.28125 L45.9219,4.98438 L47.9531,4.98438 L47.9531,5.40625 L45.9219,5.40625 L45.9219,9.01563 C45.9219,9.47396 45.9792,9.79688 46.0938,9.98438 C46.3438,10.3802 46.7031,10.5781 47.1719,10.5781 L47.9531,10.5781 L47.9531,11 L47.1875,11 C46.6979,11 46.2813,10.8568 45.9375,10.5703 C45.5938,10.2839 45.4219,9.76563 45.4219,9.01563 L45.4219,5.40625 L44.7031,5.40625 L44.7031,4.98438 L45.4219,4.98438 L45.4219,3.28125 L45.9219,3.28125 M52.125,7.60938 C51.3229,7.60938 50.7474,7.75 50.3984,8.03125 C50.0495,8.3125 49.875,8.72396 49.875,9.26563 C49.875,9.79688 50.0208,10.1745 50.3125,10.3984 C50.6042,10.6224 50.9479,10.7344 51.3438,10.7344 C52.0938,10.7344 52.6354,10.4167 52.9688,9.78125 C53.3021,9.13542 53.4688,8.53125 53.4688,7.96875 L53.4688,7.60938 L52.125,7.60938 M53.9688,7.5625 L53.9688,11 L53.4688,11 L53.4688,9.35938 C53.1979,10.1615 52.8333,10.6719 52.375,10.8906 C52.0208,11.0677 51.6615,11.1563 51.2969,11.1563 C50.7031,11.1563 50.2344,10.9948 49.8906,10.6719 C49.5469,10.349 49.375,9.8776 49.375,9.25781 C49.375,8.63802 49.599,8.14063 50.0469,7.76563 C50.4948,7.39063 51.224,7.20313 52.2344,7.20313 L53.4688,7.20313 L53.4688,7.10938 C53.4688,6.57813 53.3125,6.14063 53,5.79688 C52.7083,5.45313 52.2135,5.28125 51.5156,5.28125 C51.1719,5.28125 50.8229,5.34375 50.4688,5.46875 C50.2396,5.55208 49.9375,5.71875 49.5625,5.96875 L49.5625,5.4375 C49.8854,5.23958 50.1875,5.09896 50.4688,5.01563 C50.8646,4.90104 51.2448,4.84375 51.6094,4.84375 C52.3281,4.84375 52.9167,5.05729 53.375,5.48438 C53.7708,5.84896 53.9688,6.54167 53.9688,7.5625 M56.9688,3.28125 L56.9688,4.98438 L59,4.98438 L59,5.40625 L56.9688,5.40625 L56.9688,9.01563 C56.9688,9.47396 57.026,9.79688 57.1406,9.98438 C57.3906,10.3802 57.75,10.5781 58.2188,10.5781 L59,10.5781 L59,11 L58.2344,11 C57.7448,11 57.3281,10.8568 56.9844,10.5703 C56.6406,10.2839 56.4688,9.76563 56.4688,9.01563 L56.4688,5.40625 L55.75,5.40625 L55.75,4.98438 L56.4688,4.98438 L56.4688,3.28125 L56.9688,3.28125 M65.4531,7.75 L65.4531,8.0625 L60.8906,8.0625 C60.8906,9.02083 61.0781,9.69792 61.4531,10.0938 C61.8698,10.5208 62.4844,10.7344 63.2969,10.7344 C63.5156,10.7344 63.8021,10.6875 64.1563,10.5938 C64.5104,10.5 64.8646,10.3594 65.2188,10.1719 L65.2188,10.6875 C64.8646,10.8438 64.5026,10.9609 64.1328,11.0391 C63.763,11.1172 63.4688,11.1563 63.25,11.1563 C62.3229,11.1563 61.625,10.9063 61.1563,10.4063 C60.6458,9.875 60.3906,9.09375 60.3906,8.0625 C60.3906,6.98958 60.6198,6.1875 61.0781,5.65625 C61.5573,5.11458 62.224,4.84375 63.0781,4.84375 C63.8594,4.84375 64.4531,5.10417 64.8594,5.625 C65.2552,6.16667 65.4531,6.875 65.4531,7.75 M64.9531,7.64063 C64.9531,6.79688 64.7604,6.18229 64.375,5.79688 C64.0625,5.45313 63.6302,5.28125 63.0781,5.28125 C62.4844,5.28125 61.9844,5.45833 61.5781,5.8125 C61.2031,6.14583 60.9792,6.75521 60.9063,7.64063 L64.9531,7.64063 M71.8906,13.1719 L71.8906,13.5938 L66.1719,13.5938 L66.1719,13.1719 L71.8906,13.1719 M73.5156,9.64063 L73.5156,13.2813 L73.0313,13.2813 L73.0313,4.98438 L73.5156,4.98438 L73.5156,6.35938 C73.7448,5.83854 73.9896,5.47917 74.25,5.28125 C74.6563,4.98958 75.0417,4.84375 75.4063,4.84375 C76.1146,4.84375 76.7057,5.13281 77.1797,5.71094 C77.6536,6.28906 77.8906,7.05208 77.8906,8 C77.8906,8.94792 77.6536,9.71094 77.1797,10.2891 C76.7057,10.8672 76.1146,11.1563 75.4063,11.1563 C75.0417,11.1563 74.6563,11.0052 74.25,10.7031 C73.9896,10.5156 73.7448,10.1615 73.5156,9.64063 M76.75,10.0938 C77.1667,9.67708 77.375,8.97917 77.375,8 C77.375,7.02083 77.1667,6.32292 76.75,5.90625 C76.3333,5.48958 75.8958,5.28125 75.4375,5.28125 C74.9896,5.28125 74.5573,5.48958 74.1406,5.90625 C73.7344,6.32292 73.5313,7.02083 73.5313,8 C73.5313,8.97917 73.7344,9.67708 74.1406,10.0938 C74.5573,10.5104 74.9896,10.7188 75.4375,10.7188 C75.8958,10.7188 76.3333,10.5104 76.75,10.0938 M79.9375,8.60938 L79.9375,4.98438 L80.4219,4.98438 L80.4219,8.57813 C80.4219,9.35938 80.5469,9.90885 80.7969,10.2266 C81.0469,10.5443 81.4167,10.7031 81.9063,10.7031 C82.4792,10.7031 82.9688,10.5313 83.375,10.1875 C83.7813,9.84375 83.9844,9.24479 83.9844,8.39063 L83.9844,4.98438 L84.4688,4.98438 L84.4688,11 L83.9844,11 L83.9844,9.875 C83.8073,10.2396 83.5729,10.5156 83.2813,10.7031 C82.8646,10.9948 82.401,11.1406 81.8906,11.1406 C81.2969,11.1406 80.8229,10.9375 80.4688,10.5313 C80.1146,10.1354 79.9375,9.49479 79.9375,8.60938 M90.6875,10.0938 C91.1042,9.67708 91.3125,8.97917 91.3125,8 C91.3125,7.02083 91.1042,6.32292 90.6875,5.90625 C90.2708,5.48958 89.8333,5.28125 89.375,5.28125 C88.9271,5.28125 88.4948,5.48958 88.0781,5.90625 C87.6719,6.32292 87.4688,7.02083 87.4688,8 C87.4688,8.97917 87.6719,9.67708 88.0781,10.0938 C88.4948,10.5104 88.9271,10.7188 89.375,10.7188 C89.8333,10.7188 90.2708,10.5104 90.6875,10.0938 M87.4531,6.35938 C87.6823,5.83854 87.9271,5.47917 88.1875,5.28125 C88.5938,4.98958 88.9792,4.84375 89.3438,4.84375 C90.0521,4.84375 90.6432,5.13281 91.1172,5.71094 C91.5911,6.28906 91.8281,7.05208 91.8281,8 C91.8281,8.94792 91.5911,9.71094 91.1172,10.2891 C90.6432,10.8672 90.0521,11.1563 89.3438,11.1563 C88.9792,11.1563 88.5938,11.0052 88.1875,10.7031 C87.9271,10.5156 87.6823,10.1615 87.4531,9.64063 L87.4531,11 L86.9688,11 L86.9688,2.64063 L87.4531,2.64063 L87.4531,6.35938 M93.9375,2.64063 L94.4219,2.64063 L94.4219,11 L93.9375,11 L93.9375,2.64063 M96.9688,4.98438 L97.4688,4.98438 L97.4688,11 L96.9688,11 L96.9688,4.98438 M96.9688,2.64063 L97.4688,2.64063 L97.4688,3.3125 L96.9688,3.3125 L96.9688,2.64063 M103.438,5.15625 L103.438,5.70313 C103.083,5.50521 102.865,5.39583 102.781,5.375 C102.531,5.32292 102.219,5.29167 101.844,5.28125 C101.281,5.28125 100.839,5.39063 100.516,5.60938 C100.266,5.79688 100.141,6.11458 100.141,6.5625 C100.141,6.875 100.26,7.11458 100.5,7.28125 C100.74,7.46875 101.089,7.61458 101.547,7.71875 L101.891,7.78125 C102.464,7.90625 102.896,8.08333 103.188,8.3125 C103.531,8.58333 103.708,8.92708 103.719,9.34375 C103.719,9.90625 103.552,10.349 103.219,10.6719 C102.865,10.9948 102.286,11.1563 101.484,11.1563 C101.047,11.1563 100.714,11.125 100.484,11.0625 C100.203,10.9896 99.9115,10.8958 99.6094,10.7813 L99.6094,10.1563 C100.047,10.4063 100.328,10.5521 100.453,10.5938 C100.807,10.6875 101.161,10.7344 101.516,10.7344 C102.089,10.7344 102.516,10.6146 102.797,10.375 C103.078,10.125 103.219,9.80729 103.219,9.42188 C103.219,9.08854 103.125,8.84896 102.938,8.70313 C102.667,8.48438 102.24,8.30729 101.656,8.17188 L101.313,8.09375 C100.802,7.96875 100.417,7.80208 100.156,7.59375 C99.8229,7.32292 99.6563,6.99479 99.6563,6.60938 C99.6563,5.98438 99.8568,5.53385 100.258,5.25781 C100.659,4.98177 101.151,4.84375 101.734,4.84375 C102.234,4.84375 102.578,4.86979 102.766,4.92188 C102.995,4.98438 103.219,5.0625 103.438,5.15625 M110.297,7.375 L110.297,11 L109.797,11 L109.797,7.40625 C109.797,6.625 109.667,6.07552 109.406,5.75781 C109.146,5.4401 108.75,5.28125 108.219,5.28125 C107.604,5.28125 107.12,5.45833 106.766,5.8125 C106.411,6.16667 106.234,6.76042 106.234,7.59375 L106.234,11 L105.75,11 L105.75,2.64063 L106.234,2.64063 L106.234,6.09375 C106.349,5.79167 106.557,5.52083 106.859,5.28125 C107.203,4.98958 107.693,4.84375 108.328,4.84375 C108.932,4.84375 109.411,5.05729 109.766,5.48438 C110.12,5.91146 110.297,6.54167 110.297,7.375 M117.406,7.75 L117.406,8.0625 L112.844,8.0625 C112.844,9.02083 113.031,9.69792 113.406,10.0938 C113.823,10.5208 114.438,10.7344 115.25,10.7344 C115.469,10.7344 115.755,10.6875 116.109,10.5938 C116.464,10.5 116.818,10.3594 117.172,10.1719 L117.172,10.6875 C116.818,10.8438 116.456,10.9609 116.086,11.0391 C115.716,11.1172 115.422,11.1563 115.203,11.1563 C114.276,11.1563 113.578,10.9063 113.109,10.4063 C112.599,9.875 112.344,9.09375 112.344,8.0625 C112.344,6.98958 112.573,6.1875 113.031,5.65625 C113.51,5.11458 114.177,4.84375 115.031,4.84375 C115.813,4.84375 116.406,5.10417 116.813,5.625 C117.208,6.16667 117.406,6.875 117.406,7.75 M116.906,7.64063 C116.906,6.79688 116.714,6.18229 116.328,5.79688 C116.016,5.45313 115.583,5.28125 115.031,5.28125 C114.438,5.28125 113.938,5.45833 113.531,5.8125 C113.156,6.14583 112.932,6.75521 112.859,7.64063 L116.906,7.64063 M122.75,5.40625 C122.667,5.36458 122.557,5.33333 122.422,5.3125 C122.297,5.29167 122.146,5.28125 121.969,5.28125 C121.354,5.28125 120.849,5.50521 120.453,5.95313 C120.13,6.31771 119.969,6.94271 119.969,7.82813 L119.969,11 L119.484,11 L119.484,4.98438 L119.969,4.98438 L119.969,6.10938 C120.135,5.78646 120.365,5.51563 120.656,5.29688 C121.052,4.99479 121.521,4.84375 122.063,4.84375 C122.208,4.84375 122.333,4.84896 122.438,4.85938 C122.542,4.85938 122.646,4.86979 122.75,4.89063 L122.75,5.40625"/>
</g>

<g fill="none" stroke="#000000" stroke-opacity="1" stroke-width="1" stroke-linecap="square" stroke-linejoin="bevel" transform="matrix(2,0,0,2,567.708,22)"
font-family="sans" font-size="11" font-weight="100" font-style="normal" 
>
</g>

<g fill="none" stroke="#000000" stroke-opacity="1" stroke-width="1" stroke-linecap="square" stroke-linejoin="bevel" transform="matrix(2,0,0,2,567.708,22)"
font-family="Noto Sans" font-size="9" font-weight="400" font-style="normal" 
>
</g>

<g fill="none" stroke="#000000" stroke-opacity="1" stroke-width="1" stroke-linecap="square" stroke-linejoin="bevel" transform="matrix(2,0,0,2,-0.0016,72)"
font-family="Noto Sans" font-size="9" font-weight="400" font-style="normal" 
>
</g>

<g fill="none" stroke="#000000" stroke-opacity="1" stroke-width="1" stroke-linecap="square" stroke-linejoin="bevel" transform="matrix(2,0,0,2,-0.0016,72)"
font-family="Noto Sans" font-size="9" font-weight="400" font-style="normal" 
>
</g>

<g fill="none" stroke="#000000" stroke-opacity="1" stroke-width="1" stroke-linecap="square" stroke-linejoin="bevel" transform="matrix(2,0,0,2,-0.0016,72)"
font-family="Noto Sans" font-size="9" font-weight="400" font-style="normal" 
>
</g>

<g fill="none" stroke="#000000" stroke-opacity="1" stroke-width="1" stroke-linecap="square" stroke-linejoin="round" transform="matrix(2,0,0,2,-0.0016,72)"
font-family="Noto Sans" font-size="9" font-weight="400" font-style="normal" 
>
<ellipse cx="87.092" cy="-18" rx="86.5912" ry="17.5"/>
</g>

<g fill="none" stroke="#000000" stroke-opacity="1" stroke-width="1" stroke-linecap="square" stroke-linejoin="bevel" transform="matrix(2,0,0,2,-0.0016,72)"
font-family="Noto Sans" font-size="9" font-weight="400" font-style="normal" 
>
</g>

<g fill="none" stroke="#000000" stroke-opacity="1" stroke-width="1" stroke-linecap="square" stroke-linejoin="bevel" transform="matrix(2,0,0,2,56.573,22)"
font-family="Noto Sans" font-size="9" font-weight="400" font-style="normal" 
>
</g>

<g fill="none" stroke="#000000" stroke-opacity="1" stroke-width="1" stroke-linecap="square" stroke-linejoin="bevel" transform="matrix(2,0,0,2,56.573,22)"
font-family="sans" font-size="11" font-weight="100" font-style="normal" 
>
</g>

<g fill="#000000" fill-opacity="1" stroke="#000000" stroke-opacity="1" stroke-width="1" stroke-linecap="square" stroke-linejoin="round" transform="matrix(2,0,0,2,56.573,22)"
font-family="sans" font-size="11" font-weight="100" font-style="normal" 
>
<path vector-effect="none" fill-rule="nonzero" d="M2.96875,2.98438 L3.53125,2.98438 L0.734375,12.0156 L0.171875,12.0156 L2.96875,2.98438 M4.98438,4.98438 L5.48438,4.98438 L5.48438,11.1094 C5.48438,11.9219 5.35938,12.4896 5.10938,12.8125 C4.85938,13.125 4.44792,13.2813 3.875,13.2813 L3.5,13.2813 L3.5,12.875 L3.76563,12.875 C4.17188,12.875 4.47917,12.7813 4.6875,12.5938 C4.88542,12.4167 4.98438,11.9219 4.98438,11.1094 L4.98438,4.98438 M4.98438,2.64063 L5.48438,2.64063 L5.48438,3.3125 L4.98438,3.3125 L4.98438,2.64063 M11.5781,6.01563 C11.224,5.52604 10.7396,5.28125 10.125,5.28125 C9.51042,5.28125 9.02604,5.52604 8.67188,6.01563 C8.31771,6.49479 8.14063,7.15104 8.14063,7.98438 C8.14063,8.83854 8.31771,9.51042 8.67188,10 C9.02604,10.4896 9.51042,10.7344 10.125,10.7344 C10.7396,10.7344 11.224,10.4896 11.5781,10 C11.9323,9.5 12.1094,8.82813 12.1094,7.98438 C12.1094,7.16146 11.9323,6.50521 11.5781,6.01563 M10.125,4.84375 C10.8854,4.84375 11.4896,5.13021 11.9375,5.70313 C12.3854,6.27604 12.6094,7.03646 12.6094,7.98438 C12.6094,8.97396 12.3854,9.75521 11.9375,10.3281 C11.4896,10.901 10.8854,11.1875 10.125,11.1875 C9.34375,11.1875 8.72917,10.901 8.28125,10.3281 C7.84375,9.75521 7.625,8.97396 7.625,7.98438 C7.625,7.02604 7.84896,6.26302 8.29688,5.69531 C8.74479,5.1276 9.35417,4.84375 10.125,4.84375 M14.7031,4.98438 L15.2031,4.98438 L15.2031,11 L14.7031,11 L14.7031,4.98438 M14.7031,2.64063 L15.2031,2.64063 L15.2031,3.3125 L14.7031,3.3125 L14.7031,2.64063 M22.3125,7.375 L22.3125,11 L21.8125,11 L21.8125,7.40625 C21.8125,6.625 21.6875,6.07552 21.4375,5.75781 C21.1875,5.4401 20.8177,5.28125 20.3281,5.28125 C19.7552,5.28125 19.2708,5.45313 18.875,5.79688 C18.4583,6.14063 18.25,6.73958 18.25,7.59375 L18.25,11 L17.7656,11 L17.7656,4.98438 L18.25,4.98438 L18.25,6.10938 C18.4271,5.74479 18.6615,5.46875 18.9531,5.28125 C19.3698,4.98958 19.8333,4.84375 20.3438,4.84375 C20.9479,4.84375 21.4271,5.04688 21.7813,5.45313 C22.1354,5.84896 22.3125,6.48958 22.3125,7.375 M25.25,3.28125 L25.25,4.98438 L27.2813,4.98438 L27.2813,5.40625 L25.25,5.40625 L25.25,9.01563 C25.25,9.47396 25.3073,9.79688 25.4219,9.98438 C25.6719,10.3802 26.0313,10.5781 26.5,10.5781 L27.2813,10.5781 L27.2813,11 L26.5156,11 C26.026,11 25.6094,10.8568 25.2656,10.5703 C24.9219,10.2839 24.75,9.76563 24.75,9.01563 L24.75,5.40625 L24.0313,5.40625 L24.0313,4.98438 L24.75,4.98438 L24.75,3.28125 L25.25,3.28125 M33.4063,13.1719 L33.4063,13.5938 L27.6875,13.5938 L27.6875,13.1719 L33.4063,13.1719 M37.9531,5.15625 L37.9531,5.70313 C37.599,5.50521 37.3802,5.39583 37.2969,5.375 C37.0469,5.32292 36.7344,5.29167 36.3594,5.28125 C35.7969,5.28125 35.3542,5.39063 35.0313,5.60938 C34.7813,5.79688 34.6563,6.11458 34.6563,6.5625 C34.6563,6.875 34.776,7.11458 35.0156,7.28125 C35.2552,7.46875 35.6042,7.61458 36.0625,7.71875 L36.4063,7.78125 C36.9792,7.90625 37.4115,8.08333 37.7031,8.3125 C38.0469,8.58333 38.224,8.92708 38.2344,9.34375 C38.2344,9.90625 38.0677,10.349 37.7344,10.6719 C37.3802,10.9948 36.8021,11.1563 36,11.1563 C35.5625,11.1563 35.2292,11.125 35,11.0625 C34.7188,10.9896 34.4271,10.8958 34.125,10.7813 L34.125,10.1563 C34.5625,10.4063 34.8438,10.5521 34.9688,10.5938 C35.3229,10.6875 35.6771,10.7344 36.0313,10.7344 C36.6042,10.7344 37.0313,10.6146 37.3125,10.375 C37.5938,10.125 37.7344,9.80729 37.7344,9.42188 C37.7344,9.08854 37.6406,8.84896 37.4531,8.70313 C37.1823,8.48438 36.7552,8.30729 36.1719,8.17188 L35.8281,8.09375 C35.3177,7.96875 34.9323,7.80208 34.6719,7.59375 C34.3385,7.32292 34.1719,6.99479 34.1719,6.60938 C34.1719,5.98438 34.3724,5.53385 34.7734,5.25781 C35.1745,4.98177 35.6667,4.84375 36.25,4.84375 C36.75,4.84375 37.0938,4.86979 37.2813,4.92188 C37.5104,4.98438 37.7344,5.0625 37.9531,5.15625 M40.7813,3.28125 L40.7813,4.98438 L42.8125,4.98438 L42.8125,5.40625 L40.7813,5.40625 L40.7813,9.01563 C40.7813,9.47396 40.8385,9.79688 40.9531,9.98438 C41.2031,10.3802 41.5625,10.5781 42.0313,10.5781 L42.8125,10.5781 L42.8125,11 L42.0469,11 C41.5573,11 41.1406,10.8568 40.7969,10.5703 C40.4531,10.2839 40.2813,9.76563 40.2813,9.01563 L40.2813,5.40625 L39.5625,5.40625 L39.5625,4.98438 L40.2813,4.98438 L40.2813,3.28125 L40.7813,3.28125 M46.9844,7.60938 C46.1823,7.60938 45.6068,7.75 45.2578,8.03125 C44.9089,8.3125 44.7344,8.72396 44.7344,9.26563 C44.7344,9.79688 44.8802,10.1745 45.1719,10.3984 C45.4635,10.6224 45.8073,10.7344 46.2031,10.7344 C46.9531,10.7344 47.4948,10.4167 47.8281,9.78125 C48.1615,9.13542 48.3281,8.53125 48.3281,7.96875 L48.3281,7.60938 L46.9844,7.60938 M48.8281,7.5625 L48.8281,11 L48.3281,11 L48.3281,9.35938 C48.0573,10.1615 47.6927,10.6719 47.2344,10.8906 C46.8802,11.0677 46.5208,11.1563 46.1563,11.1563 C45.5625,11.1563 45.0938,10.9948 44.75,10.6719 C44.4063,10.349 44.2344,9.8776 44.2344,9.25781 C44.2344,8.63802 44.4583,8.14063 44.9063,7.76563 C45.3542,7.39063 46.0833,7.20313 47.0938,7.20313 L48.3281,7.20313 L48.3281,7.10938 C48.3281,6.57813 48.1719,6.14063 47.8594,5.79688 C47.5677,5.45313 47.0729,5.28125 46.375,5.28125 C46.0313,5.28125 45.6823,5.34375 45.3281,5.46875 C45.099,5.55208 44.7969,5.71875 44.4219,5.96875 L44.4219,5.4375 C44.7448,5.23958 45.0469,5.09896 45.3281,5.01563 C45.724,4.90104 46.1042,4.84375 46.4688,4.84375 C47.1875,4.84375 47.776,5.05729 48.2344,5.48438 C48.6302,5.84896 48.8281,6.54167 48.8281,7.5625 M51.8281,3.28125 L51.8281,4.98438 L53.8594,4.98438 L53.8594,5.40625 L51.8281,5.40625 L51.8281,9.01563 C51.8281,9.47396 51.8854,9.79688 52,9.98438 C52.25,10.3802 52.6094,10.5781 53.0781,10.5781 L53.8594,10.5781 L53.8594,11 L53.0938,11 C52.6042,11 52.1875,10.8568 51.8438,10.5703 C51.5,10.2839 51.3281,9.76563 51.3281,9.01563 L51.3281,5.40625 L50.6094,5.40625 L50.6094,4.98438 L51.3281,4.98438 L51.3281,3.28125 L51.8281,3.28125 M60.3125,7.75 L60.3125,8.0625 L55.75,8.0625 C55.75,9.02083 55.9375,9.69792 56.3125,10.0938 C56.7292,10.5208 57.3438,10.7344 58.1563,10.7344 C58.375,10.7344 58.6615,10.6875 59.0156,10.5938 C59.3698,10.5 59.724,10.3594 60.0781,10.1719 L60.0781,10.6875 C59.724,10.8438 59.362,10.9609 58.9922,11.0391 C58.6224,11.1172 58.3281,11.1563 58.1094,11.1563 C57.1823,11.1563 56.4844,10.9063 56.0156,10.4063 C55.5052,9.875 55.25,9.09375 55.25,8.0625 C55.25,6.98958 55.4792,6.1875 55.9375,5.65625 C56.4167,5.11458 57.0833,4.84375 57.9375,4.84375 C58.7188,4.84375 59.3125,5.10417 59.7188,5.625 C60.1146,6.16667 60.3125,6.875 60.3125,7.75 M59.8125,7.64063 C59.8125,6.79688 59.6198,6.18229 59.2344,5.79688 C58.9219,5.45313 58.4896,5.28125 57.9375,5.28125 C57.3438,5.28125 56.8438,5.45833 56.4375,5.8125 C56.0625,6.14583 55.8385,6.75521 55.7656,7.64063 L59.8125,7.64063 M66.75,13.1719 L66.75,13.5938 L61.0313,13.5938 L61.0313,13.1719 L66.75,13.1719 M68.375,9.64063 L68.375,13.2813 L67.8906,13.2813 L67.8906,4.98438 L68.375,4.98438 L68.375,6.35938 C68.6042,5.83854 68.849,5.47917 69.1094,5.28125 C69.5156,4.98958 69.901,4.84375 70.2656,4.84375 C70.974,4.84375 71.5651,5.13281 72.0391,5.71094 C72.513,6.28906 72.75,7.05208 72.75,8 C72.75,8.94792 72.513,9.71094 72.0391,10.2891 C71.5651,10.8672 70.974,11.1563 70.2656,11.1563 C69.901,11.1563 69.5156,11.0052 69.1094,10.7031 C68.849,10.5156 68.6042,10.1615 68.375,9.64063 M71.6094,10.0938 C72.026,9.67708 72.2344,8.97917 72.2344,8 C72.2344,7.02083 72.026,6.32292 71.6094,5.90625 C71.1927,5.48958 70.7552,5.28125 70.2969,5.28125 C69.849,5.28125 69.4167,5.48958 69,5.90625 C68.5938,6.32292 68.3906,7.02083 68.3906,8 C68.3906,8.97917 68.5938,9.67708 69,10.0938 C69.4167,10.5104 69.849,10.7188 70.2969,10.7188 C70.7552,10.7188 71.1927,10.5104 71.6094,10.0938 M74.7969,8.60938 L74.7969,4.98438 L75.2813,4.98438 L75.2813,8.57813 C75.2813,9.35938 75.4063,9.90885 75.6563,10.2266 C75.9063,10.5443 76.276,10.7031 76.7656,10.7031 C77.3385,10.7031 77.8281,10.5313 78.2344,10.1875 C78.6406,9.84375 78.8438,9.24479 78.8438,8.39063 L78.8438,4.98438 L79.3281,4.98438 L79.3281,11 L78.8438,11 L78.8438,9.875 C78.6667,10.2396 78.4323,10.5156 78.1406,10.7031 C77.724,10.9948 77.2604,11.1406 76.75,11.1406 C76.1563,11.1406 75.6823,10.9375 75.3281,10.5313 C74.974,10.1354 74.7969,9.49479 74.7969,8.60938 M85.5469,10.0938 C85.9635,9.67708 86.1719,8.97917 86.1719,8 C86.1719,7.02083 85.9635,6.32292 85.5469,5.90625 C85.1302,5.48958 84.6927,5.28125 84.2344,5.28125 C83.7865,5.28125 83.3542,5.48958 82.9375,5.90625 C82.5313,6.32292 82.3281,7.02083 82.3281,8 C82.3281,8.97917 82.5313,9.67708 82.9375,10.0938 C83.3542,10.5104 83.7865,10.7188 84.2344,10.7188 C84.6927,10.7188 85.1302,10.5104 85.5469,10.0938 M82.3125,6.35938 C82.5417,5.83854 82.7865,5.47917 83.0469,5.28125 C83.4531,4.98958 83.8385,4.84375 84.2031,4.84375 C84.9115,4.84375 85.5026,5.13281 85.9766,5.71094 C86.4505,6.28906 86.6875,7.05208 86.6875,8 C86.6875,8.94792 86.4505,9.71094 85.9766,10.2891 C85.5026,10.8672 84.9115,11.1563 84.2031,11.1563 C83.8385,11.1563 83.4531,11.0052 83.0469,10.7031 C82.7865,10.5156 82.5417,10.1615 82.3125,9.64063 L82.3125,11 L81.8281,11 L81.8281,2.64063 L82.3125,2.64063 L82.3125,6.35938 M88.7969,2.64063 L89.2813,2.64063 L89.2813,11 L88.7969,11 L88.7969,2.64063 M91.8281,4.98438 L92.3281,4.98438 L92.3281,11 L91.8281,11 L91.8281,4.98438 M91.8281,2.64063 L92.3281,2.64063 L92.3281,3.3125 L91.8281,3.3125 L91.8281,2.64063 M98.2969,5.15625 L98.2969,5.70313 C97.9427,5.50521 97.724,5.39583 97.6406,5.375 C97.3906,5.32292 97.0781,5.29167 96.7031,5.28125 C96.1406,5.28125 95.6979,5.39063 95.375,5.60938 C95.125,5.79688 95,6.11458 95,6.5625 C95,6.875 95.1198,7.11458 95.3594,7.28125 C95.599,7.46875 95.9479,7.61458 96.4063,7.71875 L96.75,7.78125 C97.3229,7.90625 97.7552,8.08333 98.0469,8.3125 C98.3906,8.58333 98.5677,8.92708 98.5781,9.34375 C98.5781,9.90625 98.4115,10.349 98.0781,10.6719 C97.724,10.9948 97.1458,11.1563 96.3438,11.1563 C95.9063,11.1563 95.5729,11.125 95.3438,11.0625 C95.0625,10.9896 94.7708,10.8958 94.4688,10.7813 L94.4688,10.1563 C94.9063,10.4063 95.1875,10.5521 95.3125,10.5938 C95.6667,10.6875 96.0208,10.7344 96.375,10.7344 C96.9479,10.7344 97.375,10.6146 97.6563,10.375 C97.9375,10.125 98.0781,9.80729 98.0781,9.42188 C98.0781,9.08854 97.9844,8.84896 97.7969,8.70313 C97.526,8.48438 97.099,8.30729 96.5156,8.17188 L96.1719,8.09375 C95.6615,7.96875 95.276,7.80208 95.0156,7.59375 C94.6823,7.32292 94.5156,6.99479 94.5156,6.60938 C94.5156,5.98438 94.7161,5.53385 95.1172,5.25781 C95.5182,4.98177 96.0104,4.84375 96.5938,4.84375 C97.0938,4.84375 97.4375,4.86979 97.625,4.92188 C97.8542,4.98438 98.0781,5.0625 98.2969,5.15625 M105.156,7.375 L105.156,11 L104.656,11 L104.656,7.40625 C104.656,6.625 104.526,6.07552 104.266,5.75781 C104.005,5.4401 103.609,5.28125 103.078,5.28125 C102.464,5.28125 101.979,5.45833 101.625,5.8125 C101.271,6.16667 101.094,6.76042 101.094,7.59375 L101.094,11 L100.609,11 L100.609,2.64063 L101.094,2.64063 L101.094,6.09375 C101.208,5.79167 101.417,5.52083 101.719,5.28125 C102.063,4.98958 102.552,4.84375 103.188,4.84375 C103.792,4.84375 104.271,5.05729 104.625,5.48438 C104.979,5.91146 105.156,6.54167 105.156,7.375 M112.266,7.75 L112.266,8.0625 L107.703,8.0625 C107.703,9.02083 107.891,9.69792 108.266,10.0938 C108.682,10.5208 109.297,10.7344 110.109,10.7344 C110.328,10.7344 110.615,10.6875 110.969,10.5938 C111.323,10.5 111.677,10.3594 112.031,10.1719 L112.031,10.6875 C111.677,10.8438 111.315,10.9609 110.945,11.0391 C110.576,11.1172 110.281,11.1563 110.063,11.1563 C109.135,11.1563 108.438,10.9063 107.969,10.4063 C107.458,9.875 107.203,9.09375 107.203,8.0625 C107.203,6.98958 107.432,6.1875 107.891,5.65625 C108.37,5.11458 109.036,4.84375 109.891,4.84375 C110.672,4.84375 111.266,5.10417 111.672,5.625 C112.068,6.16667 112.266,6.875 112.266,7.75 M111.766,7.64063 C111.766,6.79688 111.573,6.18229 111.188,5.79688 C110.875,5.45313 110.443,5.28125 109.891,5.28125 C109.297,5.28125 108.797,5.45833 108.391,5.8125 C108.016,6.14583 107.792,6.75521 107.719,7.64063 L111.766,7.64063 M117.609,5.40625 C117.526,5.36458 117.417,5.33333 117.281,5.3125 C117.156,5.29167 117.005,5.28125 116.828,5.28125 C116.214,5.28125 115.708,5.50521 115.313,5.95313 C114.99,6.31771 114.828,6.94271 114.828,7.82813 L114.828,11 L114.344,11 L114.344,4.98438 L114.828,4.98438 L114.828,6.10938 C114.995,5.78646 115.224,5.51563 115.516,5.29688 C115.911,4.99479 116.38,4.84375 116.922,4.84375 C117.068,4.84375 117.193,4.84896 117.297,4.85938 C117.401,4.85938 117.505,4.86979 117.609,4.89063 L117.609,5.40625"/>
</g>

<g fill="none" stroke="#000000" stroke-opacity="1" stroke-width="1" stroke-linecap="square" stroke-linejoin="bevel" transform="matrix(2,0,0,2,56.573,22)"
font-family="sans" font-size="11" font-weight="100" font-style="normal" 
>
</g>

<g fill="none" stroke="#000000" stroke-opacity="1" stroke-width="1" stroke-linecap="square" stroke-linejoin="bevel" transform="matrix(2,0,0,2,56.573,22)"
font-family="Noto Sans" font-size="9" font-weight="400" font-style="normal" 
>
</g>

<g fill="none" stroke="#000000" stroke-opacity="1" stroke-width="1" stroke-linecap="square" stroke-linejoin="bevel" transform="matrix(2,0,0,2,-0.0016,72)"
font-family="Noto Sans" font-size="9" font-weight="400" font-style="normal" 
>
</g>

<g fill="none" stroke="#000000" stroke-opacity="1" stroke-width="1" stroke-linecap="square" stroke-linejoin="bevel" transform="matrix(2,0,0,2,-0.0016,72)"
font-family="Noto Sans" font-size="9" font-weight="400" font-style="normal" 
>
</g>

<g fill="none" stroke="#000000" stroke-opacity="1" stroke-width="1" stroke-linecap="square" stroke-linejoin="bevel" transform="matrix(2,0,0,2,-0.0016,72)"
font-family="Noto Sans" font-size="9" font-weight="400" font-style="normal" 
>
</g>

<g fill="none" stroke="#000000" stroke-opacity="1" stroke-width="1" stroke-linecap="square" stroke-linejoin="round" transform="matrix(2,0,0,2,-0.0016,72)"
font-family="Noto Sans" font-size="9" font-weight="400" font-style="normal" 
>
<path vector-effect="none" fill-rule="evenodd" d="M174.48,-18 C197.52,-18 222.54,-18 246.15,-18 "/>
</g>

<g fill="none" stroke="#000000" stroke-opacity="1" stroke-width="1" stroke-linecap="square" stroke-linejoin="bevel" transform="matrix(2,0,0,2,-0.0016,72)"
font-family="Noto Sans" font-size="9" font-weight="400" font-style="normal" 
>
</g>

<g fill="none" stroke="#000000" stroke-opacity="1" stroke-width="1" stroke-linecap="square" stroke-linejoin="bevel" transform="matrix(2,0,0,2,363.499,7)"
font-family="Noto Sans" font-size="9" font-weight="400" font-style="normal" 
>
</g>

<g fill="none" stroke="#000000" stroke-opacity="1" stroke-width="1" stroke-linecap="square" stroke-linejoin="bevel" transform="matrix(2,0,0,2,363.499,7)"
font-family="sans" font-size="11" font-weight="100" font-style="normal" 
>
</g>

<g fill="#000000" fill-opacity="1" stroke="#000000" stroke-opacity="1" stroke-width="1" stroke-linecap="square" stroke-linejoin="round" transform="matrix(2,0,0,2,363.499,7)"
font-family="sans" font-size="11" font-weight="100" font-style="normal" 
>
<path vector-effect="none" fill-rule="nonzero" d="M2.96875,2.98438 L3.53125,2.98438 L0.734375,12.0156 L0.171875,12.0156 L2.96875,2.98438 M4.98438,4.98438 L5.48438,4.98438 L5.48438,11.1094 C5.48438,11.9219 5.35938,12.4896 5.10938,12.8125 C4.85938,13.125 4.44792,13.2813 3.875,13.2813 L3.5,13.2813 L3.5,12.875 L3.76563,12.875 C4.17188,12.875 4.47917,12.7813 4.6875,12.5938 C4.88542,12.4167 4.98438,11.9219 4.98438,11.1094 L4.98438,4.98438 M4.98438,2.64063 L5.48438,2.64063 L5.48438,3.3125 L4.98438,3.3125 L4.98438,2.64063 M11.5781,6.01563 C11.224,5.52604 10.7396,5.28125 10.125,5.28125 C9.51042,5.28125 9.02604,5.52604 8.67188,6.01563 C8.31771,6.49479 8.14063,7.15104 8.14063,7.98438 C8.14063,8.83854 8.31771,9.51042 8.67188,10 C9.02604,10.4896 9.51042,10.7344 10.125,10.7344 C10.7396,10.7344 11.224,10.4896 11.5781,10 C11.9323,9.5 12.1094,8.82813 12.1094,7.98438 C12.1094,7.16146 11.9323,6.50521 11.5781,6.01563 M10.125,4.84375 C10.8854,4.84375 11.4896,5.13021 11.9375,5.70313 C12.3854,6.27604 12.6094,7.03646 12.6094,7.98438 C12.6094,8.97396 12.3854,9.75521 11.9375,10.3281 C11.4896,10.901 10.8854,11.1875 10.125,11.1875 C9.34375,11.1875 8.72917,10.901 8.28125,10.3281 C7.84375,9.75521 7.625,8.97396 7.625,7.98438 C7.625,7.02604 7.84896,6.26302 8.29688,5.69531 C8.74479,5.1276 9.35417,4.84375 10.125,4.84375 M14.7031,4.98438 L15.2031,4.98438 L15.2031,11 L14.7031,11 L14.7031,4.98438 M14.7031,2.64063 L15.2031,2.64063 L15.2031,3.3125 L14.7031,3.3125 L14.7031,2.64063 M22.3125,7.375 L22.3125,11 L21.8125,11 L21.8125,7.40625 C21.8125,6.625 21.6875,6.07552 21.4375,5.75781 C21.1875,5.4401 20.8177,5.28125 20.3281,5.28125 C19.7552,5.28125 19.2708,5.45313 18.875,5.79688 C18.4583,6.14063 18.25,6.73958 18.25,7.59375 L18.25,11 L17.7656,11 L17.7656,4.98438 L18.25,4.98438 L18.25,6.10938 C18.4271,5.74479 18.6615,5.46875 18.9531,5.28125 C19.3698,4.98958 19.8333,4.84375 20.3438,4.84375 C20.9479,4.84375 21.4271,5.04688 21.7813,5.45313 C22.1354,5.84896 22.3125,6.48958 22.3125,7.375 M25.25,3.28125 L25.25,4.98438 L27.2813,4.98438 L27.2813,5.40625 L25.25,5.40625 L25.25,9.01563 C25.25,9.47396 25.3073,9.79688 25.4219,9.98438 C25.6719,10.3802 26.0313,10.5781 26.5,10.5781 L27.2813,10.5781 L27.2813,11 L26.5156,11 C26.026,11 25.6094,10.8568 25.2656,10.5703 C24.9219,10.2839 24.75,9.76563 24.75,9.01563 L24.75,5.40625 L24.0313,5.40625 L24.0313,4.98438 L24.75,4.98438 L24.75,3.28125 L25.25,3.28125 M33.4063,13.1719 L33.4063,13.5938 L27.6875,13.5938 L27.6875,13.1719 L33.4063,13.1719 M37.9531,5.15625 L37.9531,5.70313 C37.599,5.50521 37.3802,5.39583 37.2969,5.375 C37.0469,5.32292 36.7344,5.29167 36.3594,5.28125 C35.7969,5.28125 35.3542,5.39063 35.0313,5.60938 C34.7813,5.79688 34.6563,6.11458 34.6563,6.5625 C34.6563,6.875 34.776,7.11458 35.0156,7.28125 C35.2552,7.46875 35.6042,7.61458 36.0625,7.71875 L36.4063,7.78125 C36.9792,7.90625 37.4115,8.08333 37.7031,8.3125 C38.0469,8.58333 38.224,8.92708 38.2344,9.34375 C38.2344,9.90625 38.0677,10.349 37.7344,10.6719 C37.3802,10.9948 36.8021,11.1563 36,11.1563 C35.5625,11.1563 35.2292,11.125 35,11.0625 C34.7188,10.9896 34.4271,10.8958 34.125,10.7813 L34.125,10.1563 C34.5625,10.4063 34.8438,10.5521 34.9688,10.5938 C35.3229,10.6875 35.6771,10.7344 36.0313,10.7344 C36.6042,10.7344 37.0313,10.6146 37.3125,10.375 C37.5938,10.125 37.7344,9.80729 37.7344,9.42188 C37.7344,9.08854 37.6406,8.84896 37.4531,8.70313 C37.1823,8.48438 36.7552,8.30729 36.1719,8.17188 L35.8281,8.09375 C35.3177,7.96875 34.9323,7.80208 34.6719,7.59375 C34.3385,7.32292 34.1719,6.99479 34.1719,6.60938 C34.1719,5.98438 34.3724,5.53385 34.7734,5.25781 C35.1745,4.98177 35.6667,4.84375 36.25,4.84375 C36.75,4.84375 37.0938,4.86979 37.2813,4.92188 C37.5104,4.98438 37.7344,5.0625 37.9531,5.15625 M40.7813,3.28125 L40.7813,4.98438 L42.8125,4.98438 L42.8125,5.40625 L40.7813,5.40625 L40.7813,9.01563 C40.7813,9.47396 40.8385,9.79688 40.9531,9.98438 C41.2031,10.3802 41.5625,10.5781 42.0313,10.5781 L42.8125,10.5781 L42.8125,11 L42.0469,11 C41.5573,11 41.1406,10.8568 40.7969,10.5703 C40.4531,10.2839 40.2813,9.76563 40.2813,9.01563 L40.2813,5.40625 L39.5625,5.40625 L39.5625,4.98438 L40.2813,4.98438 L40.2813,3.28125 L40.7813,3.28125 M46.9844,7.60938 C46.1823,7.60938 45.6068,7.75 45.2578,8.03125 C44.9089,8.3125 44.7344,8.72396 44.7344,9.26563 C44.7344,9.79688 44.8802,10.1745 45.1719,10.3984 C45.4635,10.6224 45.8073,10.7344 46.2031,10.7344 C46.9531,10.7344 47.4948,10.4167 47.8281,9.78125 C48.1615,9.13542 48.3281,8.53125 48.3281,7.96875 L48.3281,7.60938 L46.9844,7.60938 M48.8281,7.5625 L48.8281,11 L48.3281,11 L48.3281,9.35938 C48.0573,10.1615 47.6927,10.6719 47.2344,10.8906 C46.8802,11.0677 46.5208,11.1563 46.1563,11.1563 C45.5625,11.1563 45.0938,10.9948 44.75,10.6719 C44.4063,10.349 44.2344,9.8776 44.2344,9.25781 C44.2344,8.63802 44.4583,8.14063 44.9063,7.76563 C45.3542,7.39063 46.0833,7.20313 47.0938,7.20313 L48.3281,7.20313 L48.3281,7.10938 C48.3281,6.57813 48.1719,6.14063 47.8594,5.79688 C47.5677,5.45313 47.0729,5.28125 46.375,5.28125 C46.0313,5.28125 45.6823,5.34375 45.3281,5.46875 C45.099,5.55208 44.7969,5.71875 44.4219,5.96875 L44.4219,5.4375 C44.7448,5.23958 45.0469,5.09896 45.3281,5.01563 C45.724,4.90104 46.1042,4.84375 46.4688,4.84375 C47.1875,4.84375 47.776,5.05729 48.2344,5.48438 C48.6302,5.84896 48.8281,6.54167 48.8281,7.5625 M51.8281,3.28125 L51.8281,4.98438 L53.8594,4.98438 L53.8594,5.40625 L51.8281,5.40625 L51.8281,9.01563 C51.8281,9.47396 51.8854,9.79688 52,9.98438 C52.25,10.3802 52.6094,10.5781 53.0781,10.5781 L53.8594,10.5781 L53.8594,11 L53.0938,11 C52.6042,11 52.1875,10.8568 51.8438,10.5703 C51.5,10.2839 51.3281,9.76563 51.3281,9.01563 L51.3281,5.40625 L50.6094,5.40625 L50.6094,4.98438 L51.3281,4.98438 L51.3281,3.28125 L51.8281,3.28125 M60.3125,7.75 L60.3125,8.0625 L55.75,8.0625 C55.75,9.02083 55.9375,9.69792 56.3125,10.0938 C56.7292,10.5208 57.3438,10.7344 58.1563,10.7344 C58.375,10.7344 58.6615,10.6875 59.0156,10.5938 C59.3698,10.5 59.724,10.3594 60.0781,10.1719 L60.0781,10.6875 C59.724,10.8438 59.362,10.9609 58.9922,11.0391 C58.6224,11.1172 58.3281,11.1563 58.1094,11.1563 C57.1823,11.1563 56.4844,10.9063 56.0156,10.4063 C55.5052,9.875 55.25,9.09375 55.25,8.0625 C55.25,6.98958 55.4792,6.1875 55.9375,5.65625 C56.4167,5.11458 57.0833,4.84375 57.9375,4.84375 C58.7188,4.84375 59.3125,5.10417 59.7188,5.625 C60.1146,6.16667 60.3125,6.875 60.3125,7.75 M59.8125,7.64063 C59.8125,6.79688 59.6198,6.18229 59.2344,5.79688 C58.9219,5.45313 58.4896,5.28125 57.9375,5.28125 C57.3438,5.28125 56.8438,5.45833 56.4375,5.8125 C56.0625,6.14583 55.8385,6.75521 55.7656,7.64063 L59.8125,7.64063 M65.7969,5.15625 L65.7969,5.70313 C65.4427,5.50521 65.224,5.39583 65.1406,5.375 C64.8906,5.32292 64.5781,5.29167 64.2031,5.28125 C63.6406,5.28125 63.1979,5.39063 62.875,5.60938 C62.625,5.79688 62.5,6.11458 62.5,6.5625 C62.5,6.875 62.6198,7.11458 62.8594,7.28125 C63.099,7.46875 63.4479,7.61458 63.9063,7.71875 L64.25,7.78125 C64.8229,7.90625 65.2552,8.08333 65.5469,8.3125 C65.8906,8.58333 66.0677,8.92708 66.0781,9.34375 C66.0781,9.90625 65.9115,10.349 65.5781,10.6719 C65.224,10.9948 64.6458,11.1563 63.8438,11.1563 C63.4063,11.1563 63.0729,11.125 62.8438,11.0625 C62.5625,10.9896 62.2708,10.8958 61.9688,10.7813 L61.9688,10.1563 C62.4063,10.4063 62.6875,10.5521 62.8125,10.5938 C63.1667,10.6875 63.5208,10.7344 63.875,10.7344 C64.4479,10.7344 64.875,10.6146 65.1563,10.375 C65.4375,10.125 65.5781,9.80729 65.5781,9.42188 C65.5781,9.08854 65.4844,8.84896 65.2969,8.70313 C65.026,8.48438 64.599,8.30729 64.0156,8.17188 L63.6719,8.09375 C63.1615,7.96875 62.776,7.80208 62.5156,7.59375 C62.1823,7.32292 62.0156,6.99479 62.0156,6.60938 C62.0156,5.98438 62.2161,5.53385 62.6172,5.25781 C63.0182,4.98177 63.5104,4.84375 64.0938,4.84375 C64.5938,4.84375 64.9375,4.86979 65.125,4.92188 C65.3542,4.98438 65.5781,5.0625 65.7969,5.15625 "/>
</g>

<g fill="none" stroke="#000000" stroke-opacity="1" stroke-width="1" stroke-linecap="square" stroke-linejoin="bevel" transform="matrix(2,0,0,2,363.499,7)"
font-family="sans" font-size="11" font-weight="100" font-style="normal" 
>
</g>

<g fill="none" stroke="#000000" stroke-opacity="1" stroke-width="1" stroke-linecap="square" stroke-linejoin="bevel" transform="matrix(2,0,0,2,363.499,7)"
font-family="Noto Sans" font-size="9" font-weight="400" font-style="normal" 
>
</g>

<g fill="none" stroke="#000000" stroke-opacity="1" stroke-width="1" stroke-linecap="square" stroke-linejoin="bevel" transform="matrix(2,0,0,2,-0.0016,72)"
font-family="Noto Sans" font-size="9" font-weight="400" font-style="normal" 
>
</g>

<g fill="#000000" fill-opacity="1" stroke="#000000" stroke-opacity="1" stroke-width="1" stroke-linecap="square" stroke-linejoin="round" transform="matrix(2,0,0,2,-0.0016,72)"
font-family="Noto Sans" font-size="9" font-weight="400" font-style="normal" 
>
<path vector-effect="none" fill-rule="evenodd" d="M246.15,-18 L246.15,-14.493 L256.17,-18 L246.15,-21.507 L246.15,-18"/>
</g>

<g fill="none" stroke="#000000" stroke-opacity="1" stroke-width="1" stroke-linecap="square" stroke-linejoin="bevel" transform="matrix(2,0,0,2,-0.0016,72)"
font-family="Noto Sans" font-size="9" font-weight="400" font-style="normal" 
>
</g>

<g fill="none" stroke="#000000" stroke-opacity="1" stroke-width="1" stroke-linecap="square" stroke-linejoin="bevel" transform="matrix(1,0,0,1,0,0)"
font-family="Noto Sans" font-size="9" font-weight="400" font-style="normal" 
>
</g>
</g>
</svg>
